<svg xmlns="http://www.w3.org/2000/svg" xmlns:xlink="http://www.w3.org/1999/xlink" width="1080" zoomAndPan="magnify" viewBox="0 0 810 809.999993" height="1080" preserveAspectRatio="xMidYMid meet" version="1.0"><path fill="#522694" d="M 425.550781 5.226562 L 119.800781 5.226562 C 77.378906 5.226562 43.363281 39.242188 43.363281 81.664062 L 43.363281 693.164062 C 43.363281 735.585938 77.378906 769.601562 119.800781 769.601562 L 418.289062 769.601562 C 398.035156 734.824219 387.332031 695.074219 387.332031 654.945312 C 387.332031 528.441406 490.140625 425.632812 616.644531 425.632812 C 629.640625 425.632812 642.25 426.78125 654.863281 428.691406 L 654.863281 234.539062 Z M 387.332031 272.757812 L 387.332031 62.554688 L 597.535156 272.757812 Z M 769.519531 693.164062 L 654.863281 693.164062 L 654.863281 807.820312 L 578.425781 807.820312 L 578.425781 693.164062 L 463.769531 693.164062 L 463.769531 616.726562 L 578.425781 616.726562 L 578.425781 502.070312 L 654.863281 502.070312 L 654.863281 616.726562 L 769.519531 616.726562 Z M 769.519531 693.164062 " fill-opacity="1" fill-rule="nonzero"/></svg>