<svg width="51" height="50" viewBox="0 0 51 50" fill="none" xmlns="http://www.w3.org/2000/svg">
<path d="M25.8529 40C26.7279 40 27.4679 39.6975 28.0729 39.0925C28.6779 38.4875 28.9796 37.7483 28.9779 36.875C28.9762 36.0017 28.6746 35.2617 28.0729 34.655C27.4712 34.0483 26.7312 33.7467 25.8529 33.75C24.9746 33.7533 24.2354 34.0558 23.6354 34.6575C23.0354 35.2592 22.7329 35.9983 22.7279 36.875C22.7229 37.7517 23.0254 38.4917 23.6354 39.095C24.2454 39.6983 24.9846 40 25.8529 40ZM25.9779 50C22.5196 50 19.2696 49.3433 16.2279 48.03C13.1863 46.7167 10.5404 44.9358 8.29043 42.6875C6.04043 40.4392 4.2596 37.7933 2.94793 34.75C1.63626 31.7067 0.979598 28.4567 0.977931 25C0.976265 21.5433 1.63293 18.2933 2.94793 15.25C4.26293 12.2067 6.04376 9.56083 8.29043 7.3125C10.5371 5.06417 13.1829 3.28333 16.2279 1.97C19.2729 0.656667 22.5229 0 25.9779 0C29.4329 0 32.6829 0.656667 35.7279 1.97C38.7729 3.28333 41.4187 5.06417 43.6654 7.3125C45.9121 9.56083 47.6937 12.2067 49.0104 15.25C50.3271 18.2933 50.9829 21.5433 50.9779 25C50.9729 28.4567 50.3162 31.7067 49.0079 34.75C47.6996 37.7933 45.9187 40.4392 43.6654 42.6875C41.4121 44.9358 38.7662 46.7175 35.7279 48.0325C32.6896 49.3475 29.4396 50.0033 25.9779 50ZM26.2279 14.25C27.2696 14.25 28.1762 14.5833 28.9479 15.25C29.7196 15.9167 30.1046 16.75 30.1029 17.75C30.1029 18.6667 29.8221 19.4792 29.2604 20.1875C28.6987 20.8958 28.0629 21.5625 27.3529 22.1875C26.3946 23.0208 25.5512 23.9375 24.8229 24.9375C24.0946 25.9375 23.7296 27.0625 23.7279 28.3125C23.7279 28.8958 23.9471 29.3858 24.3854 29.7825C24.8237 30.1792 25.3337 30.3767 25.9154 30.375C26.5404 30.375 27.0721 30.1667 27.5104 29.75C27.9487 29.3333 28.2296 28.8125 28.3529 28.1875C28.5196 27.3125 28.8946 26.5317 29.4779 25.845C30.0612 25.1583 30.6862 24.5017 31.3529 23.875C32.3112 22.9583 33.1346 21.9583 33.8229 20.875C34.5112 19.7917 34.8546 18.5833 34.8529 17.25C34.8529 15.125 33.9887 13.3858 32.2604 12.0325C30.5321 10.6792 28.5212 10.0017 26.2279 10C24.6446 10 23.1346 10.3333 21.6979 11C20.2613 11.6667 19.1671 12.6875 18.4154 14.0625C18.1238 14.5625 18.0304 15.0942 18.1354 15.6575C18.2404 16.2208 18.5213 16.6475 18.9779 16.9375C19.5613 17.2708 20.1654 17.375 20.7904 17.25C21.4154 17.125 21.9363 16.7708 22.3529 16.1875C22.8113 15.5625 23.3846 15.0833 24.0729 14.75C24.7612 14.4167 25.4796 14.25 26.2279 14.25Z" fill="white"/>
</svg>
