<svg width="46" height="46" viewBox="0 0 46 46" fill="none" xmlns="http://www.w3.org/2000/svg">
<mask id="mask0_231_67" style="mask-type:luminance" maskUnits="userSpaceOnUse" x="0" y="0" width="46" height="46">
<path d="M22.9167 43.75C25.653 43.7534 28.3631 43.2161 30.8912 42.1689C33.4192 41.1217 35.7154 39.5853 37.6479 37.6479C39.5852 35.7155 41.1216 33.4192 42.1688 30.8912C43.216 28.3631 43.7534 25.6531 43.75 22.9167C43.7534 20.1803 43.216 17.4703 42.1688 14.9422C41.1216 12.4141 39.5852 10.1179 37.6479 8.18544C35.7154 6.24811 33.4192 4.71171 30.8912 3.66452C28.3631 2.61733 25.653 2.07998 22.9167 2.08336C20.1803 2.07998 17.4702 2.61733 14.9422 3.66452C12.4141 4.71171 10.1179 6.24811 8.18541 8.18544C6.24808 10.1179 4.71168 12.4141 3.66449 14.9422C2.6173 17.4703 2.07995 20.1803 2.08333 22.9167C2.07995 25.6531 2.6173 28.3631 3.66449 30.8912C4.71168 33.4192 6.24808 35.7155 8.18541 37.6479C10.1179 39.5853 12.4141 41.1217 14.9422 42.1689C17.4702 43.2161 20.1803 43.7534 22.9167 43.75Z" fill="white" stroke="white" stroke-width="4.16667" stroke-linejoin="round"/>
<path d="M22.9167 27.7344V23.5678C24.1528 23.5678 25.3612 23.2012 26.389 22.5144C27.4168 21.8277 28.2179 20.8516 28.6909 19.7095C29.164 18.5675 29.2878 17.3108 29.0466 16.0984C28.8054 14.8861 28.2102 13.7724 27.3361 12.8983C26.462 12.0243 25.3484 11.429 24.136 11.1878C22.9236 10.9467 21.667 11.0705 20.5249 11.5435C19.3829 12.0166 18.4068 12.8176 17.72 13.8454C17.0332 14.8732 16.6667 16.0816 16.6667 17.3178" stroke="black" stroke-width="4.16667" stroke-linecap="round" stroke-linejoin="round"/>
<path fill-rule="evenodd" clip-rule="evenodd" d="M22.9167 37.1094C23.6073 37.1094 24.2697 36.835 24.7581 36.3467C25.2465 35.8583 25.5208 35.1959 25.5208 34.5052C25.5208 33.8146 25.2465 33.1522 24.7581 32.6638C24.2697 32.1754 23.6073 31.9011 22.9167 31.9011C22.226 31.9011 21.5636 32.1754 21.0752 32.6638C20.5869 33.1522 20.3125 33.8146 20.3125 34.5052C20.3125 35.1959 20.5869 35.8583 21.0752 36.3467C21.5636 36.835 22.226 37.1094 22.9167 37.1094Z" fill="black"/>
</mask>
<g mask="url(#mask0_231_67)">
<path d="M-2.08331 -2.08331H47.9167V47.9167H-2.08331V-2.08331Z" fill="#1956EC"/>
</g>
</svg>
