<svg width="42" height="42" viewBox="0 0 42 42" fill="none" xmlns="http://www.w3.org/2000/svg">
<path fill-rule="evenodd" clip-rule="evenodd" d="M41.6676 13.1104C41.6676 20.3521 35.7718 26.2229 28.5009 26.2229C27.1759 26.2229 24.1551 25.9187 22.6863 24.6979L20.8488 26.5271C19.7676 27.6042 20.0593 27.9208 20.5405 28.4417C20.7405 28.6604 20.9738 28.9125 21.1551 29.2729C21.1551 29.2729 22.6863 31.4062 21.1551 33.5417C20.2363 34.7604 17.6634 36.4667 14.7259 33.5417L14.1134 34.15C14.1134 34.15 15.9488 36.2854 14.4197 38.4208C13.5009 39.6396 11.0509 40.8583 8.90718 38.725L6.76551 40.8583C5.29468 42.3229 3.49884 41.4687 2.78634 40.8583L0.946761 39.0292C-0.767822 37.3208 0.232178 35.4708 0.946761 34.7583L16.8676 18.9042C16.8676 18.9042 15.3363 16.4667 15.3363 13.1125C15.3363 5.87083 21.2322 0 28.503 0C35.7738 0 41.6676 5.87083 41.6676 13.1104ZM28.503 17.6854C29.7182 17.6876 30.8846 17.2072 31.7456 16.3496C32.6067 15.4921 33.0919 14.3277 33.0947 13.1125C33.0936 12.5106 32.9739 11.9148 32.7426 11.3592C32.5113 10.8035 32.1727 10.2989 31.7464 9.87403C31.32 9.4492 30.8141 9.11252 30.2576 8.88319C29.7011 8.65387 29.1049 8.5364 28.503 8.5375C27.9011 8.5364 27.3049 8.65387 26.7484 8.88319C26.1919 9.11252 25.686 9.4492 25.2597 9.87403C24.8333 10.2989 24.4948 10.8035 24.2634 11.3592C24.0321 11.9148 23.9124 12.5106 23.9113 13.1125C23.9141 14.3277 24.3994 15.4921 25.2604 16.3496C26.1214 17.2072 27.2878 17.6876 28.503 17.6854Z" fill="#1956EC"/>
</svg>
