<svg width="40" height="44" viewBox="0 0 40 44" fill="none" xmlns="http://www.w3.org/2000/svg">
<path d="M29.1667 9.70926e-09C30.7609 -8.87953e-05 32.2948 0.609011 33.4547 1.70267C34.6146 2.79634 35.3127 4.29189 35.4063 5.88333L35.4167 6.25V27.0833H36.9792C38.3271 27.0833 39.4375 28.1083 39.5708 29.4208L39.5833 29.6875V33.3333C39.5834 34.9275 38.9743 36.4615 37.8807 37.6214C36.787 38.7813 35.2914 39.4794 33.7 39.5729L33.3333 39.5833H12.5C10.9058 39.5834 9.37184 38.9743 8.21196 37.8807C7.05207 36.787 6.35394 35.2914 6.26042 33.7L6.25 33.3333V12.5H2.60417C1.95946 12.5003 1.33757 12.2614 0.858821 11.8296C0.380076 11.3978 0.0785177 10.8038 0.0125001 10.1625L9.70926e-09 9.89583V6.25C-8.87953e-05 4.65581 0.609011 3.12184 1.70267 1.96196C2.79634 0.802069 4.29189 0.103943 5.88333 0.0104169L6.25 9.70926e-09H29.1667ZM35.4167 31.25H16.6667V33.3333C16.6667 34.0625 16.5417 34.7646 16.3125 35.4167H33.3333C33.8859 35.4167 34.4158 35.1972 34.8065 34.8065C35.1972 34.4158 35.4167 33.8859 35.4167 33.3333V31.25ZM20.8333 18.75H16.6667C16.1357 18.7506 15.6249 18.9539 15.2388 19.3184C14.8527 19.683 14.6203 20.1812 14.5892 20.7112C14.5581 21.2413 14.7306 21.7633 15.0714 22.1705C15.4122 22.5777 15.8956 22.8394 16.4229 22.9021L16.6667 22.9167H20.8333C21.3643 22.9161 21.8751 22.7128 22.2612 22.3482C22.6473 21.9837 22.8797 21.4855 22.9108 20.9554C22.9419 20.4253 22.7694 19.9034 22.4286 19.4962C22.0878 19.089 21.6044 18.8273 21.0771 18.7646L20.8333 18.75ZM25 10.4167H16.6667C16.1141 10.4167 15.5842 10.6362 15.1935 11.0269C14.8028 11.4176 14.5833 11.9475 14.5833 12.5C14.5833 13.0525 14.8028 13.5824 15.1935 13.9731C15.5842 14.3638 16.1141 14.5833 16.6667 14.5833H25C25.5525 14.5833 26.0824 14.3638 26.4731 13.9731C26.8638 13.5824 27.0833 13.0525 27.0833 12.5C27.0833 11.9475 26.8638 11.4176 26.4731 11.0269C26.0824 10.6362 25.5525 10.4167 25 10.4167ZM6.25 4.16667C5.69747 4.16667 5.16756 4.38616 4.77686 4.77686C4.38616 5.16756 4.16667 5.69747 4.16667 6.25V8.33333H6.25V4.16667Z" fill="#1956EC"/>
</svg>
