<svg width="50" height="42" viewBox="0 0 50 42" fill="none" xmlns="http://www.w3.org/2000/svg">
<path d="M12.5 6.93677C10.0161 6.94501 7.63635 7.93537 5.87998 9.69174C4.1236 11.4481 3.13324 13.8279 3.125 16.3118C3.125 18.5774 3.60312 20.6868 4.8125 22.4243C5.66875 23.6649 7.14375 24.393 8.55 25.1743C8.56563 27.643 8.53438 28.2493 6.58438 31.4961C5.3125 33.6149 7.7625 36.0055 9.85 34.6836C14.2812 31.8649 17.3 29.343 19.2437 26.3711C21.1875 23.4055 21.875 20.0868 21.875 16.3118C21.8709 13.8266 20.8818 11.4445 19.1246 9.6872C17.3673 7.92995 14.9851 6.9409 12.5 6.93677ZM37.5 6.93677C35.0161 6.94501 32.6363 7.93537 30.88 9.69174C29.1236 11.4481 28.1332 13.8279 28.125 16.3118C28.125 18.5774 28.6031 20.6868 29.8125 22.4243C30.6688 23.6649 32.1438 24.393 33.55 25.1743C33.5656 27.643 33.5375 28.2493 31.5844 31.4961C30.3125 33.6149 32.7625 36.0055 34.85 34.6836C39.2812 31.8649 42.3 29.343 44.2438 26.3711C46.1875 23.4055 46.875 20.0868 46.875 16.3118C46.8709 13.8266 45.8818 11.4445 44.1246 9.6872C42.3673 7.92995 39.9851 6.9409 37.5 6.93677Z" fill="#1956EC"/>
</svg>
