<svg width="40" height="40" viewBox="0 0 40 40" fill="none" xmlns="http://www.w3.org/2000/svg">
<path d="M33.3334 13.3332L20 21.6665L6.66671 13.3332V9.99984L20 18.3332L33.3334 9.99984M33.3334 6.6665H6.66671C4.81671 6.6665 3.33337 8.14984 3.33337 9.99984V29.9998C3.33337 30.8839 3.68456 31.7317 4.30968 32.3569C4.93481 32.982 5.78265 33.3332 6.66671 33.3332H33.3334C34.2174 33.3332 35.0653 32.982 35.6904 32.3569C36.3155 31.7317 36.6667 30.8839 36.6667 29.9998V9.99984C36.6667 9.11578 36.3155 8.26794 35.6904 7.64281C35.0653 7.01769 34.2174 6.6665 33.3334 6.6665Z" fill="white"/>
</svg>
