<svg width="51" height="50" viewBox="0 0 51 50" fill="none" xmlns="http://www.w3.org/2000/svg">
<path d="M8.83335 10.4166H42.1667C43.2718 10.4166 44.3316 10.8556 45.113 11.637C45.8944 12.4184 46.3334 13.4782 46.3334 14.5833V35.4166C46.3334 36.5217 45.8944 37.5815 45.113 38.3629C44.3316 39.1443 43.2718 39.5833 42.1667 39.5833H8.83335C7.72828 39.5833 6.66848 39.1443 5.88708 38.3629C5.10567 37.5815 4.66669 36.5217 4.66669 35.4166V14.5833C4.66669 13.4782 5.10567 12.4184 5.88708 11.637C6.66848 10.8556 7.72828 10.4166 8.83335 10.4166ZM38 14.5833H13C13 15.6884 12.561 16.7482 11.7796 17.5296C10.9982 18.311 9.93842 18.75 8.83335 18.75V31.25C9.93842 31.25 10.9982 31.6889 11.7796 32.4703C12.561 33.2517 13 34.3116 13 35.4166H38C38 34.3116 38.439 33.2517 39.2204 32.4703C40.0018 31.6889 41.0616 31.25 42.1667 31.25V18.75C41.0616 18.75 40.0018 18.311 39.2204 17.5296C38.439 16.7482 38 15.6884 38 14.5833ZM17.1667 18.75H21.3334V31.25H17.1667V18.75ZM29.6667 27.0833C30.2192 27.0833 30.7491 26.8638 31.1398 26.4731C31.5305 26.0824 31.75 25.5525 31.75 25C31.75 24.4474 31.5305 23.9175 31.1398 23.5268C30.7491 23.1361 30.2192 22.9166 29.6667 22.9166C29.1142 22.9166 28.5842 23.1361 28.1935 23.5268C27.8028 23.9175 27.5834 24.4474 27.5834 25C27.5834 25.5525 27.8028 26.0824 28.1935 26.4731C28.5842 26.8638 29.1142 27.0833 29.6667 27.0833ZM29.6667 31.25C28.0091 31.25 26.4194 30.5915 25.2473 29.4194C24.0752 28.2473 23.4167 26.6576 23.4167 25C23.4167 23.3424 24.0752 21.7526 25.2473 20.5805C26.4194 19.4084 28.0091 18.75 29.6667 18.75C31.3243 18.75 32.914 19.4084 34.0861 20.5805C35.2582 21.7526 35.9167 23.3424 35.9167 25C35.9167 26.6576 35.2582 28.2473 34.0861 29.4194C32.914 30.5915 31.3243 31.25 29.6667 31.25Z" fill="white"/>
</svg>
