<svg width="41" height="41" viewBox="0 0 41 41" fill="none" xmlns="http://www.w3.org/2000/svg">
<path d="M37.6252 20.8596C37.633 20.5783 37.633 20.2971 37.6252 20.0158L40.5393 16.3752C40.6921 16.1841 40.7978 15.9597 40.848 15.7202C40.8982 15.4807 40.8915 15.2327 40.8283 14.9963C40.3498 13.2009 39.6352 11.4769 38.7033 9.86935C38.5812 9.65903 38.4117 9.48013 38.2082 9.34687C38.0048 9.21362 37.7731 9.12969 37.5315 9.10177L32.8986 8.58615C32.7059 8.38302 32.5106 8.18771 32.3127 8.00021L31.7658 3.35568C31.7377 3.11391 31.6535 2.88205 31.5199 2.67859C31.3863 2.47513 31.207 2.3057 30.9963 2.18381C29.3889 1.25267 27.6648 0.53939 25.8694 0.0627113C25.6329 -0.000452477 25.385 -0.0072021 25.1455 0.0430064C24.906 0.0932148 24.6816 0.198977 24.4904 0.351774L20.8596 3.25021H20.0158L16.3752 0.342008C16.1841 0.189212 15.9597 0.0834493 15.7202 0.0332409C15.4807 -0.0169676 15.2327 -0.0102183 14.9963 0.0529454C13.2009 0.531514 11.4769 1.24608 9.86935 2.17795C9.65903 2.30007 9.48013 2.4696 9.34687 2.67304C9.21362 2.87649 9.12969 3.10823 9.10177 3.34982L8.58615 7.99045C8.38302 8.18446 8.18771 8.37977 8.00021 8.57638L3.35568 9.10959C3.11391 9.13771 2.88205 9.22194 2.67859 9.35554C2.47513 9.48915 2.3057 9.66844 2.18381 9.87912C1.25282 11.4868 0.538928 13.2108 0.0607581 15.0061C-0.00213854 15.2426 -0.00857157 15.4907 0.0419774 15.7302C0.0925264 15.9697 0.198643 16.194 0.351774 16.385L3.25021 20.0158V20.8596L0.342008 24.5002C0.189212 24.6914 0.0834493 24.9157 0.0332409 25.1552C-0.0169676 25.3947 -0.0102183 25.6427 0.0529454 25.8791C0.531514 27.6745 1.24608 29.3985 2.17795 31.0061C2.30007 31.2164 2.4696 31.3953 2.67304 31.5286C2.87649 31.6618 3.10823 31.7457 3.34982 31.7736L7.98263 32.2893C8.17664 32.4924 8.37196 32.6877 8.56857 32.8752L9.10959 37.5197C9.13771 37.7615 9.22194 37.9934 9.35554 38.1968C9.48915 38.4003 9.66844 38.5697 9.87912 38.6916C11.4868 39.6226 13.2108 40.3365 15.0061 40.8147C15.2426 40.8776 15.4907 40.884 15.7302 40.8334C15.9697 40.7829 16.194 40.6768 16.385 40.5236L20.0158 37.6252C20.2971 37.633 20.5783 37.633 20.8596 37.6252L24.5002 40.5393C24.6914 40.6921 24.9157 40.7978 25.1552 40.848C25.3947 40.8982 25.6427 40.8915 25.8791 40.8283C27.6748 40.3506 29.399 39.636 31.0061 38.7033C31.2164 38.5812 31.3953 38.4117 31.5286 38.2082C31.6618 38.0048 31.7457 37.7731 31.7736 37.5315L32.2893 32.8986C32.4924 32.7059 32.6877 32.5106 32.8752 32.3127L37.5197 31.7658C37.7615 31.7377 37.9934 31.6535 38.1968 31.5199C38.4003 31.3863 38.5697 31.207 38.6916 30.9963C39.6226 29.3886 40.3365 27.6646 40.8147 25.8694C40.8776 25.6328 40.884 25.3847 40.8334 25.1452C40.7829 24.9057 40.6768 24.6814 40.5236 24.4904L37.6252 20.8596ZM20.4377 28.2502C18.8925 28.2502 17.3821 27.792 16.0973 26.9336C14.8126 26.0751 13.8112 24.855 13.2199 23.4274C12.6286 21.9999 12.4739 20.429 12.7753 18.9136C13.0768 17.3981 13.8208 16.006 14.9134 14.9134C16.006 13.8208 17.3981 13.0768 18.9136 12.7753C20.429 12.4739 21.9999 12.6286 23.4274 13.2199C24.855 13.8112 26.0751 14.8126 26.9336 16.0973C27.792 17.3821 28.2502 18.8925 28.2502 20.4377C28.2502 22.5097 27.4271 24.4969 25.962 25.962C24.4969 27.4271 22.5097 28.2502 20.4377 28.2502Z" fill="#1956EC"/>
</svg>
