<svg width="30" height="42" viewBox="0 0 30 42" fill="none" xmlns="http://www.w3.org/2000/svg">
<path d="M25 0H4.16667C3.0616 0 2.00179 0.438987 1.22039 1.22039C0.438987 2.00179 0 3.0616 0 4.16667V39.5833C0 40.1359 0.219494 40.6658 0.610195 41.0565C1.0009 41.4472 1.5308 41.6667 2.08333 41.6667H27.0833C27.6359 41.6667 28.1658 41.4472 28.5565 41.0565C28.9472 40.6658 29.1667 40.1359 29.1667 39.5833V4.16667C29.1667 3.0616 28.7277 2.00179 27.9463 1.22039C27.1649 0.438987 26.1051 0 25 0ZM12.5 29.1667H6.25V25H12.5V29.1667ZM12.5 20.8333H6.25V16.6667H12.5V20.8333ZM12.5 12.5H6.25V8.33333H12.5V12.5ZM22.9167 29.1667H16.6667V25H22.9167V29.1667ZM22.9167 20.8333H16.6667V16.6667H22.9167V20.8333ZM22.9167 12.5H16.6667V8.33333H22.9167V12.5Z" fill="#1956EC"/>
</svg>
