<svg width="70" height="71" viewBox="0 0 70 71" fill="none" xmlns="http://www.w3.org/2000/svg">
<path d="M34.9983 59.1424L18.0324 69.8436C17.2829 70.343 16.4993 70.557 15.6817 70.4857C14.8641 70.4143 14.1486 70.129 13.5354 69.6296C12.9222 69.1302 12.4452 68.5067 12.1045 67.759C11.7639 67.0114 11.6957 66.1724 11.9001 65.2421L16.3971 45.0169L1.37312 31.4264C0.691755 30.7843 0.266586 30.0524 0.0976081 29.2305C-0.0713693 28.4087 -0.0209488 27.6068 0.24887 26.8249C0.518689 26.043 0.927505 25.4009 1.47532 24.8987C2.02313 24.3964 2.77263 24.0754 3.72381 23.9356L23.5514 22.1164L31.2167 3.06828C31.5574 2.21219 32.0861 1.57012 32.8029 1.14207C33.5197 0.714023 34.2515 0.5 34.9983 0.5C35.745 0.5 36.4768 0.714023 37.1936 1.14207C37.9104 1.57012 38.4391 2.21219 38.7798 3.06828L46.4451 22.1164L66.2727 23.9356C67.2266 24.0783 67.9761 24.3993 68.5212 24.8987C69.0663 25.3981 69.4751 26.0401 69.7476 26.8249C70.0202 27.6096 70.072 28.4129 69.903 29.2348C69.734 30.0566 69.3075 30.7872 68.6234 31.4264L53.5994 45.0169L58.0964 65.2421C58.3008 66.1695 58.2326 67.0085 57.892 67.759C57.5513 68.5095 57.0743 69.133 56.4611 69.6296C55.8479 70.1261 55.1325 70.4115 54.3148 70.4857C53.4972 70.5599 52.7136 70.3458 51.9641 69.8436L34.9983 59.1424Z" fill="white"/>
</svg>
