<svg width="40" height="41" viewBox="0 0 40 41" fill="none" xmlns="http://www.w3.org/2000/svg">
<path fill-rule="evenodd" clip-rule="evenodd" d="M20 6.83334C16.6553 6.82916 13.4238 8.04426 10.9104 10.2511C8.39711 12.458 6.77436 15.5053 6.34602 18.8224C5.91769 22.1396 6.71313 25.4992 8.58343 28.2721C10.4537 31.045 13.2706 33.0411 16.5067 33.8867V26.2083H14.6033C14.0735 26.2079 13.5655 25.9972 13.1908 25.6226C12.8161 25.2479 12.6054 24.7399 12.605 24.21V21.375C12.6054 20.8452 12.8161 20.3371 13.1908 19.9625C13.5655 19.5878 14.0735 19.3771 14.6033 19.3767H16.46C16.4383 18.7983 16.395 18.2167 16.395 17.6383C16.395 16.1567 16.645 13.2083 18.9833 11.535C19.7083 11.0183 20.39 10.675 21.14 10.4733C21.875 10.2783 22.6117 10.235 23.3983 10.235C24.7883 10.235 25.75 10.3733 26.3617 10.4617L26.6367 10.5C27.0081 10.55 27.3489 10.7329 27.5959 11.0148C27.8428 11.2967 27.9793 11.6585 27.98 12.0333V15.1717C27.9802 15.381 27.938 15.5881 27.856 15.7806C27.7739 15.9732 27.6538 16.1471 27.5027 16.292C27.3516 16.4368 27.1728 16.5495 26.977 16.6234C26.7812 16.6972 26.5724 16.7307 26.3633 16.7217C26.1083 16.7317 25.2383 16.765 24.4867 16.765C23.97 16.765 23.8167 16.8833 23.7633 16.9417C23.6883 17.0217 23.4933 17.315 23.4933 18.215V19.3767H25.615C25.9043 19.3769 26.1901 19.4399 26.4527 19.5612C26.7153 19.6826 26.9485 19.8596 27.1361 20.0798C27.3237 20.3 27.4613 20.5583 27.5394 20.8369C27.6174 21.1155 27.6341 21.4077 27.5883 21.6933L27.1567 24.5383C27.0787 25.0046 26.838 25.4282 26.4774 25.7339C26.1167 26.0397 25.6594 26.2077 25.1867 26.2083H23.4933V33.8867C26.7294 33.0411 29.5463 31.045 31.4166 28.2721C33.2869 25.4992 34.0823 22.1396 33.654 18.8224C33.2256 15.5053 31.6029 12.458 29.0896 10.2511C26.5762 8.04426 23.3447 6.82916 20 6.83334ZM3.75 20.5833C3.75 11.6083 11.025 4.33334 20 4.33334C28.975 4.33334 36.25 11.6083 36.25 20.5833C36.25 28.7333 30.2517 35.48 22.4283 36.6533C22.2506 36.6797 22.0693 36.6674 21.8967 36.6174C21.7242 36.5673 21.5645 36.4807 21.4284 36.3633C21.2924 36.2459 21.1833 36.1006 21.1085 35.9373C21.0337 35.7739 20.995 35.5963 20.995 35.4167V24.9583C20.995 24.6268 21.1267 24.3089 21.3611 24.0745C21.5955 23.84 21.9135 23.7083 22.245 23.7083H24.755L25.0317 21.8767H22.2433C21.9118 21.8767 21.5939 21.745 21.3594 21.5106C21.125 21.2761 20.9933 20.9582 20.9933 20.6267V18.2167C20.9933 17.0417 21.235 15.985 21.9383 15.2333C22.6633 14.46 23.6333 14.2667 24.4883 14.2667C24.815 14.2667 25.17 14.26 25.48 14.25V12.8667C24.7895 12.7799 24.0943 12.7365 23.3983 12.7367C22.6867 12.7367 22.2067 12.7783 21.7867 12.8917C21.3817 12.9983 20.97 13.19 20.4383 13.57C19.1933 14.4617 18.8983 16.2033 18.895 17.6167L19.005 20.5833C19.011 20.7512 18.9832 20.9186 18.9231 21.0755C18.863 21.2324 18.7719 21.3756 18.6552 21.4965C18.5385 21.6173 18.3986 21.7135 18.244 21.7791C18.0893 21.8447 17.923 21.8785 17.755 21.8783H15.105V23.71H17.755C18.0865 23.71 18.4045 23.8417 18.6389 24.0761C18.8733 24.3105 19.005 24.6285 19.005 24.96V35.4183C19.005 35.598 18.9663 35.7756 18.8915 35.9389C18.8167 36.1023 18.7076 36.2476 18.5716 36.365C18.4355 36.4823 18.2758 36.569 18.1033 36.619C17.9307 36.6691 17.7494 36.6814 17.5717 36.655C9.74833 35.48 3.75 28.7333 3.75 20.5833Z" fill="white"/>
</svg>
