<svg width="100" height="101" viewBox="0 0 100 101" fill="none" xmlns="http://www.w3.org/2000/svg">
<path d="M99.3746 47.4955C98.9778 46.4734 98.3829 45.5397 97.6239 44.7478L55.9399 3.11543C55.1626 2.33909 54.2398 1.72325 53.2242 1.3031C52.2086 0.882941 51.1201 0.666687 50.0208 0.666687C47.8007 0.666687 45.6715 1.54753 44.1017 3.11543C43.3243 3.89178 42.7078 4.81344 42.2871 5.82779C41.8664 6.84214 41.6499 7.92931 41.6499 9.02723C41.6499 11.2446 42.5318 13.3711 44.1017 14.939L71.6131 42.3331H8.3368C6.12574 42.3331 4.00525 43.2104 2.44179 44.7719C0.87834 46.3334 0 48.4513 0 50.6596C0 52.8679 0.87834 54.9858 2.44179 56.5473C4.00525 58.1088 6.12574 58.9861 8.3368 58.9861H71.6131L44.1017 86.3802C43.3203 87.1542 42.7001 88.0751 42.2768 89.0898C41.8536 90.1044 41.6356 91.1927 41.6356 92.2919C41.6356 93.3911 41.8536 94.4794 42.2768 95.4941C42.7001 96.5088 43.3203 97.4297 44.1017 98.2037C44.8767 98.9842 45.7987 99.6036 46.8146 100.026C47.8306 100.449 48.9202 100.667 50.0208 100.667C51.1213 100.667 52.211 100.449 53.2269 100.026C54.2428 99.6036 55.1649 98.9842 55.9399 98.2037L97.6239 56.5714C98.3829 55.7795 98.9778 54.8457 99.3746 53.8236C100.208 51.7965 100.208 49.5227 99.3746 47.4955Z" fill="#1956EC"/>
</svg>
