<svg width="42" height="42" viewBox="0 0 42 42" fill="none" xmlns="http://www.w3.org/2000/svg">
<path d="M20.8333 0C9.32708 0 0 9.32708 0 20.8333C0 32.3396 9.32708 41.6667 20.8333 41.6667C32.3396 41.6667 41.6667 32.3396 41.6667 20.8333C41.6667 9.32708 32.3396 0 20.8333 0ZM22.9167 33.3333H18.75V29.1667H22.9167V33.3333ZM22.9167 24.7062V27.0833H18.75V22.9167C18.75 22.3641 18.9695 21.8342 19.3602 21.4435C19.7509 21.0528 20.2808 20.8333 20.8333 20.8333C23.1312 20.8333 25 18.9646 25 16.6667C25 14.3687 23.1312 12.5 20.8333 12.5C18.5354 12.5 16.6667 14.3687 16.6667 16.6667H12.5C12.5 14.4565 13.378 12.3369 14.9408 10.7741C16.5036 9.21131 18.6232 8.33333 20.8333 8.33333C23.0435 8.33333 25.1631 9.21131 26.7259 10.7741C28.2887 12.3369 29.1667 14.4565 29.1667 16.6667C29.1638 18.5101 28.5482 20.3002 27.4169 21.7555C26.2855 23.2109 24.7024 24.2489 22.9167 24.7062Z" fill="white"/>
</svg>
