<svg width="40" height="40" viewBox="0 0 40 40" fill="none" xmlns="http://www.w3.org/2000/svg">
<path fill-rule="evenodd" clip-rule="evenodd" d="M18.232 0.731966C18.7008 0.263288 19.3366 0 19.9995 0C20.6624 0 21.2981 0.263288 21.767 0.731966L39.267 18.232C39.6165 18.5816 39.8545 19.027 39.9509 19.5119C40.0473 19.9968 39.9978 20.4994 39.8087 20.9561C39.6195 21.4129 39.2991 21.8033 38.8881 22.078C38.4771 22.3527 37.9938 22.4994 37.4995 22.4995H34.9995V37.4995C34.9995 38.1625 34.7361 38.7984 34.2672 39.2672C33.7984 39.7361 33.1625 39.9995 32.4995 39.9995H27.4995C26.8364 39.9995 26.2005 39.7361 25.7317 39.2672C25.2629 38.7984 24.9995 38.1625 24.9995 37.4995V29.9995C24.9995 29.3364 24.7361 28.7005 24.2672 28.2317C23.7984 27.7629 23.1625 27.4995 22.4995 27.4995H17.4995C16.8364 27.4995 16.2005 27.7629 15.7317 28.2317C15.2629 28.7005 14.9995 29.3364 14.9995 29.9995V37.4995C14.9995 38.1625 14.7361 38.7984 14.2672 39.2672C13.7984 39.7361 13.1625 39.9995 12.4995 39.9995H7.49947C6.83643 39.9995 6.20054 39.7361 5.7317 39.2672C5.26286 38.7984 4.99947 38.1625 4.99947 37.4995V22.4995H2.49947C2.00509 22.4994 1.52185 22.3527 1.11082 22.078C0.699796 21.8033 0.379448 21.4129 0.190272 20.9561C0.00109738 20.4994 -0.0484102 19.9968 0.0480087 19.5119C0.144428 19.027 0.382444 18.5816 0.731967 18.232L18.232 0.731966Z" fill="white"/>
</svg>
