<svg width="50" height="50" viewBox="0 0 50 50" fill="none" xmlns="http://www.w3.org/2000/svg">
<path d="M27.1416 4.1665C29.4854 4.17275 30.675 4.18525 31.7021 4.21442L32.1062 4.229C32.5729 4.24567 33.0333 4.2665 33.5896 4.2915C35.8062 4.39567 37.3187 4.74567 38.6458 5.26025C40.0208 5.78942 41.1791 6.50609 42.3375 7.66234C43.3973 8.70345 44.217 9.96332 44.7396 11.354C45.2542 12.6811 45.6041 14.1936 45.7083 16.4123C45.7333 16.9665 45.7541 17.4269 45.7708 17.8957L45.7833 18.2998C45.8146 19.3248 45.8271 20.5144 45.8312 22.8582L45.8333 24.4123V27.1415C45.8384 28.6611 45.8224 30.1807 45.7854 31.6998L45.7729 32.104C45.7562 32.5728 45.7354 33.0332 45.7104 33.5873C45.6062 35.8061 45.2521 37.3165 44.7396 38.6457C44.217 40.0364 43.3973 41.2962 42.3375 42.3373C41.2964 43.3971 40.0365 44.2169 38.6458 44.7394C37.3187 45.254 35.8062 45.604 33.5896 45.7082L32.1062 45.7707L31.7021 45.7832C30.675 45.8123 29.4854 45.8269 27.1416 45.8311L25.5875 45.8332H22.8604C21.3401 45.8385 19.8198 45.8226 18.3 45.7853L17.8958 45.7728C17.4013 45.754 16.9068 45.7325 16.4125 45.7082C14.1958 45.604 12.6833 45.254 11.3542 44.7394C9.96421 44.2166 8.70507 43.3969 7.66457 42.3373C6.60404 41.2964 5.78354 40.0365 5.2604 38.6457C4.74582 37.3186 4.39582 35.8061 4.29165 33.5873L4.22915 32.104L4.21873 31.6998C4.18033 30.1807 4.16297 28.6611 4.16665 27.1415V22.8582C4.16088 21.3386 4.17616 19.819 4.21248 18.2998L4.22707 17.8957C4.24373 17.4269 4.26457 16.9665 4.28957 16.4123C4.39373 14.1936 4.74373 12.6832 5.25832 11.354C5.78268 9.96275 6.60462 8.70283 7.66665 7.66234C8.70655 6.60306 9.96496 5.78332 11.3542 5.26025C12.6833 4.74567 14.1937 4.39567 16.4125 4.2915C16.9667 4.2665 17.4292 4.24567 17.8958 4.229L18.3 4.2165C19.8191 4.17949 21.3387 4.16351 22.8583 4.16859L27.1416 4.1665ZM25 14.5832C22.2373 14.5832 19.5878 15.6806 17.6343 17.6341C15.6808 19.5876 14.5833 22.2372 14.5833 24.9998C14.5833 27.7625 15.6808 30.412 17.6343 32.3655C19.5878 34.319 22.2373 35.4165 25 35.4165C27.7627 35.4165 30.4122 34.319 32.3657 32.3655C34.3192 30.412 35.4166 27.7625 35.4166 24.9998C35.4166 22.2372 34.3192 19.5876 32.3657 17.6341C30.4122 15.6806 27.7627 14.5832 25 14.5832ZM25 18.7498C25.8207 18.7497 26.6335 18.9112 27.3918 19.2252C28.1502 19.5392 28.8392 19.9994 29.4197 20.5797C30.0002 21.16 30.4607 21.8489 30.7749 22.6071C31.0891 23.3653 31.2509 24.178 31.251 24.9988C31.2512 25.8196 31.0896 26.6323 30.7757 27.3906C30.4617 28.149 30.0014 28.8381 29.4212 29.4185C28.8409 29.999 28.152 30.4595 27.3938 30.7737C26.6355 31.0879 25.8228 31.2497 25.0021 31.2498C23.3445 31.2498 21.7548 30.5914 20.5826 29.4193C19.4105 28.2472 18.7521 26.6574 18.7521 24.9998C18.7521 23.3422 19.4105 21.7525 20.5826 20.5804C21.7548 19.4083 23.3445 18.7498 25.0021 18.7498M35.9396 11.4582C35.2489 11.4582 34.5865 11.7325 34.0981 12.2209C33.6098 12.7093 33.3354 13.3717 33.3354 14.0623C33.3354 14.753 33.6098 15.4154 34.0981 15.9038C34.5865 16.3921 35.2489 16.6665 35.9396 16.6665C36.6302 16.6665 37.2926 16.3921 37.781 15.9038C38.2694 15.4154 38.5437 14.753 38.5437 14.0623C38.5437 13.3717 38.2694 12.7093 37.781 12.2209C37.2926 11.7325 36.6302 11.4582 35.9396 11.4582Z" fill="white"/>
</svg>
