<svg width="38" height="21" viewBox="0 0 38 21" fill="none" xmlns="http://www.w3.org/2000/svg">
<path d="M0.25 12.5833H4.41667V8.41666H0.25V12.5833ZM0.25 20.9167H4.41667V16.75H0.25V20.9167ZM0.25 4.24999H4.41667V0.0833282H0.25V4.24999ZM8.58333 12.5833H37.75V8.41666H8.58333V12.5833ZM8.58333 20.9167H37.75V16.75H8.58333V20.9167ZM8.58333 0.0833282V4.24999H37.75V0.0833282H8.58333ZM0.25 12.5833H4.41667V8.41666H0.25V12.5833ZM0.25 20.9167H4.41667V16.75H0.25V20.9167ZM0.25 4.24999H4.41667V0.0833282H0.25V4.24999ZM8.58333 12.5833H37.75V8.41666H8.58333V12.5833ZM8.58333 20.9167H37.75V16.75H8.58333V20.9167ZM8.58333 0.0833282V4.24999H37.75V0.0833282H8.58333Z" fill="white"/>
</svg>
