<svg width="100" height="100" viewBox="0 0 100 100" fill="none" xmlns="http://www.w3.org/2000/svg">
<g filter="url(#filter0_d_18_379)">
<path d="M50.0208 86.0208L90.625 65.6938L70.8125 36.0562L66.3375 38.5771L50.0208 13.9792M50.0208 86.0208L9.375 65.7458L34.95 27.6146L39.375 30.0333L50.0208 13.9792M50.0208 86.0208V13.9792" stroke="white" stroke-width="2.08333" stroke-linecap="round" stroke-linejoin="round"/>
<path d="M50.0208 34.7167L61.2438 40.4813L50.0208 46.3979L38.9625 40.5313L50.0208 34.7167Z" stroke="white" stroke-width="2.08333" stroke-linecap="round" stroke-linejoin="round"/>
<path d="M50 51.4917L60.2667 46.1417L67.725 49.9958L50 58.8L32.4792 50L39.5792 46.0896L50 51.4917Z" stroke="white" stroke-width="2.08333" stroke-linecap="round" stroke-linejoin="round"/>
<path d="M50.1042 64.2021L65.5646 56.2771L74.725 60.6L50.1021 73.4125L25.3771 60.7042L34.2292 56.225L50.1042 64.2021Z" stroke="white" stroke-width="2.08333" stroke-linecap="round" stroke-linejoin="round"/>
</g>
<defs>
<filter id="filter0_d_18_379" x="-8" y="-3" width="116" height="116" filterUnits="userSpaceOnUse" color-interpolation-filters="sRGB">
<feFlood flood-opacity="0" result="BackgroundImageFix"/>
<feColorMatrix in="SourceAlpha" type="matrix" values="0 0 0 0 0 0 0 0 0 0 0 0 0 0 0 0 0 0 127 0" result="hardAlpha"/>
<feOffset dy="5"/>
<feGaussianBlur stdDeviation="4"/>
<feComposite in2="hardAlpha" operator="out"/>
<feColorMatrix type="matrix" values="0 0 0 0 0 0 0 0 0 0 0 0 0 0 0 0 0 0 0.6 0"/>
<feBlend mode="normal" in2="BackgroundImageFix" result="effect1_dropShadow_18_379"/>
<feBlend mode="normal" in="SourceGraphic" in2="effect1_dropShadow_18_379" result="shape"/>
</filter>
</defs>
</svg>
