<svg width="50" height="50" viewBox="0 0 50 50" fill="none" xmlns="http://www.w3.org/2000/svg">
<path fill-rule="evenodd" clip-rule="evenodd" d="M0 5.35714C0 3.93634 0.564412 2.57373 1.56907 1.56907C2.57373 0.564412 3.93634 0 5.35714 0L30.3571 0C31.7779 0 33.1406 0.564412 34.1452 1.56907C35.1499 2.57373 35.7143 3.93634 35.7143 5.35714V12.2821C34.2652 13.4428 33.3249 15.1222 33.0929 16.9643H20.5357C19.4804 16.9643 18.4355 17.1721 17.4606 17.576C16.4856 17.9798 15.5998 18.5717 14.8536 19.3179C14.1074 20.0641 13.5155 20.9499 13.1117 21.9249C12.7078 22.8998 12.5 23.9447 12.5 25C12.5 26.0553 12.7078 27.1002 13.1117 28.0751C13.5155 29.0501 14.1074 29.9359 14.8536 30.6821C15.5998 31.4283 16.4856 32.0202 17.4606 32.424C18.4355 32.8279 19.4804 33.0357 20.5357 33.0357H33.0929C33.3249 34.8778 34.2652 36.5572 35.7143 37.7179V44.6429C35.7143 46.0637 35.1499 47.4263 34.1452 48.4309C33.1406 49.4356 31.7779 50 30.3571 50H5.35714C3.93634 50 2.57373 49.4356 1.56907 48.4309C0.564412 47.4263 0 46.0637 0 44.6429L0 5.35714ZM39.1536 15.3821C38.6641 15.5849 38.2457 15.9283 37.9513 16.3688C37.657 16.8094 37.4999 17.3273 37.5 17.8571V21.4286H20.5357C19.5885 21.4286 18.6801 21.8048 18.0103 22.4746C17.3406 23.1444 16.9643 24.0528 16.9643 25C16.9643 25.9472 17.3406 26.8556 18.0103 27.5254C18.6801 28.1952 19.5885 28.5714 20.5357 28.5714H37.5V32.1429C37.5005 32.6723 37.6578 33.1897 37.9522 33.6298C38.2465 34.0698 38.6647 34.4128 39.1538 34.6153C39.643 34.8179 40.1812 34.8709 40.7005 34.7677C41.2198 34.6646 41.6968 34.4098 42.0714 34.0357L49.2143 26.8929C49.7159 26.3906 49.9976 25.7098 49.9976 25C49.9976 24.2902 49.7159 23.6094 49.2143 23.1071L42.0714 15.9643C41.6971 15.5897 41.2201 15.3344 40.7008 15.2308C40.1814 15.1272 39.643 15.1799 39.1536 15.3821Z" fill="white"/>
</svg>
