<svg width="81" height="80" viewBox="0 0 81 80" fill="none" xmlns="http://www.w3.org/2000/svg">
<path d="M75.9204 26.7753L53.2994 24.7223L44.466 2.9696C42.8769 -0.989868 37.4554 -0.989868 35.8663 2.9696L27.0329 24.7711L4.45861 26.7753C0.345704 27.1175 -1.33685 32.4946 1.79457 35.3297L18.9473 50.8743L13.8061 73.9468C12.8714 78.1507 17.218 81.4747 20.77 79.2261L40.1661 67.0055L59.5622 79.275C63.1143 81.5236 67.4609 78.1996 66.5261 73.9957L61.385 50.8743L78.5377 35.3297C81.6691 32.4946 80.0333 27.1175 75.9204 26.7753ZM40.1661 57.8645V12.4039L48.1583 32.1524L68.6293 34.0099L53.1124 48.088L57.7862 69.0097L40.1661 57.8645Z" fill="white"/>
</svg>
