<svg width="168" height="167" viewBox="0 0 168 167" fill="none" xmlns="http://www.w3.org/2000/svg">
<path d="M84 0.166672C86.2102 0.166672 88.3298 1.04465 89.8926 2.60745C91.4554 4.17025 92.3334 6.28987 92.3334 8.5C92.3334 10.7101 91.4554 12.8298 89.8926 14.3926C88.3298 15.9554 86.2102 16.8333 84 16.8333C70.8146 16.8333 57.9253 20.7433 46.962 28.0687C35.9987 35.3941 27.4539 45.806 22.4081 57.9878C17.3622 70.1695 16.042 83.574 18.6143 96.506C21.1867 109.438 27.5361 121.317 36.8596 130.64C46.1831 139.964 58.0619 146.313 70.994 148.886C83.9261 151.458 97.3305 150.138 109.512 145.092C121.694 140.046 132.106 131.501 139.431 120.538C146.757 109.575 150.667 96.6854 150.667 83.5C150.667 81.2899 151.545 79.1703 153.107 77.6074C154.67 76.0446 156.79 75.1667 159 75.1667C161.21 75.1667 163.33 76.0446 164.893 77.6074C166.455 79.1703 167.333 81.2899 167.333 83.5C167.333 129.525 130.025 166.833 84 166.833C37.975 166.833 0.666687 129.525 0.666687 83.5C0.666687 37.475 37.975 0.166672 84 0.166672ZM84 33.5C86.2102 33.5 88.3298 34.378 89.8926 35.9408C91.4554 37.5036 92.3334 39.6232 92.3334 41.8333C92.3334 44.0435 91.4554 46.1631 89.8926 47.7259C88.3298 49.2887 86.2102 50.1667 84 50.1667C77.4073 50.1667 70.9627 52.1216 65.481 55.7844C59.9994 59.4471 55.727 64.653 53.204 70.7439C50.6811 76.8348 50.021 83.537 51.3072 90.003C52.5933 96.469 55.768 102.408 60.4298 107.07C65.0915 111.732 71.031 114.907 77.497 116.193C83.963 117.479 90.6653 116.819 96.7561 114.296C102.847 111.773 108.053 107.501 111.716 102.019C115.378 96.5374 117.333 90.0927 117.333 83.5C117.333 81.2899 118.211 79.1703 119.774 77.6074C121.337 76.0446 123.457 75.1667 125.667 75.1667C127.877 75.1667 129.996 76.0446 131.559 77.6074C133.122 79.1703 134 81.2899 134 83.5C134 93.3891 131.068 103.056 125.573 111.279C120.079 119.501 112.27 125.91 103.134 129.694C93.9979 133.478 83.9446 134.469 74.2455 132.539C64.5465 130.61 55.6373 125.848 48.6447 118.855C41.6521 111.863 36.89 102.954 34.9608 93.2545C33.0315 83.5555 34.0217 73.5021 37.806 64.3658C41.5904 55.2295 47.999 47.4206 56.2215 41.9265C64.444 36.4325 74.111 33.5 84 33.5ZM138.758 1C139.863 1 140.923 1.43899 141.705 2.22039C142.486 3.00179 142.925 4.0616 142.925 5.16667V20.4167C142.927 21.5203 143.367 22.578 144.148 23.3576C144.93 24.1372 145.988 24.575 147.092 24.575H162.333C163.438 24.575 164.498 25.014 165.28 25.7954C166.061 26.5768 166.5 27.6366 166.5 28.7417V36.3667L150.767 52.1C147.642 55.2258 143.403 56.9824 138.983 56.9833H122.317L89.9 89.3917C88.3283 90.9097 86.2233 91.7496 84.0383 91.7306C81.8534 91.7116 79.7633 90.8352 78.2182 89.2902C76.6731 87.7451 75.7967 85.655 75.7777 83.47C75.7587 81.285 76.5987 79.18 78.1167 77.6083L110.533 45.2V28.5333C110.532 24.1146 112.286 19.8762 115.408 16.75L131.158 1H138.758Z" fill="#1956EC"/>
</svg>
