<svg width="56" height="31" viewBox="0 0 56 31" fill="none" xmlns="http://www.w3.org/2000/svg">
<path d="M21.3575 30.955L16.5275 29.66L18.495 22.3125C15.5502 21.2258 12.8131 19.6429 10.4025 17.6325L5.02 23.0175L1.485 19.4825L6.8675 14.0975C3.82798 10.4567 1.78555 6.08933 0.940002 1.42252L5.86 0.525024C6.80363 5.70955 9.53669 10.3985 13.5828 13.7747C17.629 17.1509 22.7316 19.0001 28.0013 19.0001C33.271 19.0001 38.3736 17.1509 42.4197 13.7747C46.4658 10.3985 49.1989 5.70955 50.1425 0.525024L55.0625 1.42002C54.2166 6.08795 52.1733 10.4563 49.1325 14.0975L54.5175 19.4825L50.9825 23.0175L45.5975 17.6325C43.1869 19.6429 40.4498 21.2258 37.505 22.3125L39.475 29.6625L34.645 30.955L32.675 23.605C29.5812 24.1387 26.4188 24.1387 23.325 23.605L21.3575 30.955Z" fill="black"/>
</svg>
