<svg width="350" height="351" viewBox="0 0 350 351" fill="none" xmlns="http://www.w3.org/2000/svg">
<path d="M185.875 203.424L215.942 221.386C218.805 223.208 221.606 223.146 224.345 221.199C227.083 219.252 228.057 216.581 227.265 213.186L219.456 179.215L246.008 156.177C248.612 153.834 249.392 151.038 248.351 147.789C247.31 144.54 244.967 142.781 241.323 142.51L206.57 139.777L192.904 107.367C191.602 104.243 189.259 102.681 185.875 102.681C182.491 102.681 180.148 104.243 178.846 107.367L165.18 139.777L130.427 142.51C126.783 142.77 124.44 144.53 123.399 147.789C122.358 151.048 123.138 153.844 125.742 156.177L152.294 179.215L144.485 213.186C143.704 216.57 144.682 219.241 147.421 221.199C150.159 223.156 152.955 223.219 155.808 221.386L185.875 203.424ZM133.551 289.719H92.1607C83.5702 289.719 76.2189 286.663 70.1066 280.551C63.9944 274.439 60.933 267.082 60.9226 258.481V217.091L30.856 186.634C27.9925 183.51 25.7798 180.063 24.2179 176.294C22.656 172.525 21.875 168.682 21.875 164.767C21.875 160.852 22.656 157.015 24.2179 153.256C25.7798 149.497 27.9925 146.045 30.856 142.9L60.9226 112.443V71.0528C60.9226 62.4623 63.9839 55.111 70.1066 48.9987C76.2293 42.8864 83.5807 39.8251 92.1607 39.8147H133.551L164.008 9.74804C167.132 6.88455 170.584 4.67185 174.364 3.10995C178.144 1.54804 181.981 0.76709 185.875 0.76709C189.769 0.76709 193.612 1.54804 197.402 3.10995C201.192 4.67185 204.639 6.88455 207.742 9.74804L238.199 39.8147H279.589C288.18 39.8147 295.536 42.876 301.659 48.9987C307.782 55.1214 310.838 62.4727 310.827 71.0528V112.443L340.894 142.9C343.758 146.024 345.97 149.476 347.532 153.256C349.094 157.036 349.875 160.873 349.875 164.767C349.875 168.661 349.094 172.504 347.532 176.294C345.97 180.084 343.758 183.531 340.894 186.634L310.827 217.091V258.481C310.827 267.072 307.771 274.428 301.659 280.551C295.547 286.674 288.19 289.73 279.589 289.719H238.199L207.742 319.786C204.618 322.65 201.171 324.862 197.402 326.424C193.632 327.986 189.79 328.767 185.875 328.767C181.96 328.767 178.123 327.986 174.364 326.424C170.605 324.862 167.153 322.65 164.008 319.786L133.551 289.719Z" fill="#5682F1"/>
</svg>
