<svg width="483" height="481" viewBox="0 0 483 481" fill="none" xmlns="http://www.w3.org/2000/svg">
<path d="M257.426 274.004L291.213 277.304C294.477 277.715 296.919 276.51 298.54 273.689C300.162 270.867 299.934 268.139 297.858 265.507L277.174 239.113L291.205 208.13C292.547 205.019 292.099 202.262 289.861 199.859C287.624 197.456 284.845 196.885 281.524 198.146L249.797 210.041L224.588 187.415C222.172 185.227 219.473 184.829 216.492 186.219C213.51 187.609 212.081 189.933 212.203 193.189L213.332 227.045L183.826 243.703C180.721 245.427 179.372 247.923 179.779 251.191C180.186 254.459 182.01 256.574 185.251 257.537L218.005 266.704L224.928 299.514C225.615 302.784 227.563 304.709 230.771 305.29C233.979 305.871 236.468 304.777 238.236 302.008L257.426 274.004ZM246.394 370.695L209.929 387.699C202.361 391.228 194.643 391.585 186.774 388.77C178.906 385.955 173.22 380.802 169.716 373.312L152.898 337.245L114.033 323.057C110.241 321.512 106.892 319.417 103.984 316.774C101.076 314.131 98.827 311.104 97.2362 307.693C95.6453 304.281 94.7742 300.617 94.6228 296.699C94.4715 292.782 95.0183 288.865 96.2632 284.949L110.376 246.057L93.5579 209.991C90.0673 202.505 89.7772 194.842 92.6877 187C95.5981 179.159 100.831 173.471 108.385 169.938L144.85 152.934L159.466 114.222C161.054 110.444 163.196 107.097 165.891 104.184C168.587 101.27 171.65 99.013 175.081 97.4132C178.512 95.8133 182.214 94.9154 186.188 94.7193C190.162 94.5233 194.097 95.0354 197.994 96.2559L237.044 109.943L273.509 92.9393C281.077 89.4102 288.802 89.0556 296.684 91.8755C304.565 94.6954 310.245 99.8457 313.722 107.326L330.54 143.393L369.404 157.581C373.196 159.127 376.548 161.226 379.46 163.878C382.372 166.53 384.619 169.552 386.202 172.946C387.784 176.339 388.657 180.008 388.821 183.952C388.985 187.897 388.437 191.809 387.175 195.689L373.062 234.581L389.88 270.648C393.371 278.133 393.667 285.799 390.77 293.645C387.873 301.491 382.634 307.176 375.052 310.701L338.588 327.705L323.972 366.416C322.384 370.195 320.246 373.539 317.56 376.448C314.874 379.358 311.806 381.617 308.357 383.225C304.908 384.833 301.21 385.729 297.264 385.913C293.318 386.096 289.377 385.586 285.443 384.382L246.394 370.695Z" fill="#1956EC"/>
</svg>
