<svg width="90" height="90" viewBox="0 0 90 90" fill="none" xmlns="http://www.w3.org/2000/svg">
<path d="M47.6327 69.4886C47.2791 71.4938 46.1434 73.2764 44.4755 74.4443C42.8076 75.6122 40.7441 76.0696 38.7389 75.7161C36.7337 75.3625 34.9511 74.2268 33.7832 72.5589C32.6154 70.891 32.1579 68.8275 32.5115 66.8223C32.865 64.8171 34.0007 63.0345 35.6686 61.8666C37.3365 60.6988 39.4 60.2413 41.4052 60.5949C43.4104 60.9484 45.193 62.0841 46.3609 63.752C47.5288 65.4199 47.9862 67.4834 47.6327 69.4886Z" fill="white"/>
<path fill-rule="evenodd" clip-rule="evenodd" d="M47.5934 24.8591C45.0606 24.4125 42.7536 24.7853 41.0319 25.5965C39.3736 26.3799 38.43 27.4647 38.0337 28.4746C37.4741 29.8191 36.4098 30.8908 35.0691 31.4596C33.7285 32.0285 32.2182 32.0492 30.8625 31.5174C29.5067 30.9856 28.4133 29.9436 27.817 28.6149C27.2207 27.2862 27.1689 25.7767 27.6727 24.4103C29.2814 20.305 32.5326 17.2961 36.291 15.5227C40.2022 13.6787 44.854 13.0724 49.5264 13.8963C59.1926 15.6007 68.0744 23.8321 66.244 34.2128C65.1841 40.2235 60.7545 44.455 55.6275 46.4744C54.2535 47.0146 52.7211 46.987 51.3675 46.3974C50.0138 45.8078 48.9498 44.7047 48.4096 43.3307C47.8693 41.9566 47.897 40.4242 48.4865 39.0706C49.0761 37.717 50.1792 36.653 51.5532 36.1127C53.9406 35.1733 55.0425 33.6331 55.2811 32.2797C55.6637 30.1098 53.6154 25.921 47.5934 24.8591Z" fill="white"/>
<path fill-rule="evenodd" clip-rule="evenodd" d="M45.0171 39.4699C48.0413 40.0032 50.0666 42.8861 49.532 45.9179L48.5308 51.5959C48.2745 53.0497 47.4511 54.3421 46.2419 55.1888C45.0327 56.0355 43.5366 56.3672 42.0828 56.1108C40.6291 55.8545 39.3367 55.0311 38.49 53.8219C37.6433 52.6127 37.3116 51.1166 37.5679 49.6629L38.5691 43.9849C39.1024 40.9606 41.9891 38.936 45.0171 39.4699Z" fill="white"/>
<path fill-rule="evenodd" clip-rule="evenodd" d="M58.8003 39.3122C59.0616 39.9954 59.1857 40.7235 59.1655 41.4547C59.1452 42.1859 58.981 42.906 58.6823 43.5737C58.3835 44.2414 57.9561 44.8437 57.4244 45.3461C56.8927 45.8485 56.2672 46.2412 55.5837 46.5017L46.0383 50.1469C44.6593 50.6739 43.1275 50.6316 41.7798 50.0292C40.4321 49.4268 39.3789 48.3137 38.8519 46.9348C38.3249 45.5558 38.3672 44.024 38.9696 42.6763C39.572 41.3286 40.6851 40.2754 42.0641 39.7484L51.6139 36.1C52.2969 35.8393 53.0245 35.7156 53.7553 35.7361C54.4861 35.7566 55.2057 35.9209 55.873 36.2195C56.5402 36.5181 57.1422 36.9453 57.6443 37.4766C58.1465 38.0079 58.5397 38.6291 58.8003 39.3122Z" fill="white"/>
</svg>
