<svg width="90" height="90" viewBox="0 0 90 90" fill="none" xmlns="http://www.w3.org/2000/svg">
<path d="M22.8723 55.5576C20.8671 55.9112 18.8036 55.4537 17.1357 54.2858C15.4678 53.118 14.3321 51.3353 13.9785 49.3302C13.625 47.325 14.0824 45.2614 15.2503 43.5935C16.4182 41.9256 18.2008 40.79 20.206 40.4364C22.2112 40.0828 24.2747 40.5403 25.9426 41.7082C27.6105 42.8761 28.7462 44.6587 29.0997 46.6639C29.4533 48.6691 28.9958 50.7326 27.828 52.4005C26.6601 54.0684 24.8775 55.204 22.8723 55.5576Z" fill="white"/>
<path fill-rule="evenodd" clip-rule="evenodd" d="M64.7967 40.2565C64.3501 37.7237 63.2107 35.6833 61.8596 34.3429C60.5563 33.0526 59.2141 32.5369 58.1297 32.5099C56.6748 32.4439 55.3038 31.8103 54.3107 30.745C53.3176 29.6798 52.7816 28.2677 52.8176 26.8118C52.8537 25.3559 53.4589 23.9721 54.5035 22.9573C55.5481 21.9425 56.9488 21.3776 58.4052 21.3837C62.8131 21.4912 66.7525 23.5173 69.7044 26.4425C72.7748 29.4871 74.9357 33.651 75.7595 38.3234C77.464 47.9896 72.7667 59.151 62.386 60.9814C56.3753 62.0413 50.884 59.3261 47.2328 55.1989C46.2552 54.0926 45.7571 52.6431 45.8481 51.1695C45.9392 49.6958 46.6119 48.3187 47.7183 47.3411C48.8246 46.3634 50.2741 45.8653 51.7477 45.9564C53.2214 46.0474 54.5985 46.7201 55.5761 47.8265C57.2754 49.7486 59.0996 50.2572 60.453 50.0186C62.6228 49.636 65.8585 46.2785 64.7967 40.2565Z" fill="white"/>
<path fill-rule="evenodd" clip-rule="evenodd" d="M50.1858 42.8328C50.719 45.857 48.7027 48.7461 45.6709 49.2807L39.9928 50.2819C38.5391 50.5382 37.043 50.2066 35.8338 49.3599C34.6246 48.5132 33.8012 47.2208 33.5449 45.767C33.2885 44.3132 33.6202 42.8172 34.4669 41.6079C35.3136 40.3987 36.606 39.5754 38.0598 39.319L43.7378 38.3178C46.762 37.7846 49.6518 39.8047 50.1858 42.8328Z" fill="white"/>
<path fill-rule="evenodd" clip-rule="evenodd" d="M55.0482 55.7307C54.4955 56.21 53.8538 56.5756 53.1598 56.8066C52.4657 57.0377 51.7329 57.1297 51.0033 57.0773C50.2737 57.025 49.5615 56.8293 48.9076 56.5015C48.2536 56.1737 47.6707 55.7203 47.1921 55.167L40.502 47.444C39.5351 46.3285 39.051 44.8746 39.1562 43.4021C39.2613 41.9296 39.947 40.5592 41.0626 39.5924C42.1781 38.6255 43.632 38.1414 45.1045 38.2465C46.5769 38.3517 47.9473 39.0374 48.9142 40.153L55.6088 47.8791C56.0874 48.4317 56.4525 49.0732 56.6831 49.7669C56.9138 50.4606 57.0056 51.1929 56.9532 51.9221C56.9008 52.6513 56.7052 53.363 56.3777 54.0166C56.0502 54.6702 55.6009 55.2522 55.0482 55.7307Z" fill="white"/>
</svg>
