<svg width="109" height="110" viewBox="0 0 109 110" fill="none" xmlns="http://www.w3.org/2000/svg">
<path d="M42.2674 76.7375C40.8233 78.1815 38.8648 78.9928 36.8226 78.9928C34.7805 78.9928 32.8219 78.1815 31.3779 76.7375C29.9339 75.2935 29.1226 73.3349 29.1226 71.2928C29.1226 69.2506 29.9339 67.2921 31.3779 65.848C32.8219 64.404 34.7805 63.5928 36.8226 63.5928C38.8648 63.5928 40.8233 64.404 42.2674 65.848C43.7114 67.2921 44.5226 69.2506 44.5226 71.2928C44.5226 73.3349 43.7114 75.2935 42.2674 76.7375Z" fill="white"/>
<path fill-rule="evenodd" clip-rule="evenodd" d="M67.9093 40.0482C66.0853 38.2243 63.9755 37.2034 62.0943 36.8794C60.2812 36.5691 58.8819 36.9175 57.9754 37.5192C56.7421 38.3019 55.2512 38.5701 53.8225 38.2662C52.3938 37.9623 51.1411 37.1105 50.3332 35.8937C49.5252 34.6768 49.2264 33.1917 49.5008 31.757C49.7753 30.3223 50.6011 29.0524 51.8011 28.2196C55.4844 25.7722 59.8865 25.1705 63.9945 25.8756C68.2687 26.6107 72.4393 28.7886 75.8041 32.1534C82.7652 39.1145 85.327 50.9867 77.8514 58.4623C73.5228 62.7908 67.4492 63.7192 62.0753 62.4288C60.6356 62.0822 59.3925 61.1779 58.6196 59.9148C57.8466 58.6518 57.6071 57.1333 57.9536 55.6936C58.3002 54.254 59.2045 53.0109 60.4676 52.2379C61.7306 51.465 63.249 51.2254 64.6887 51.572C67.1906 52.1736 68.9819 51.542 69.9565 50.5674C71.5191 49.0048 72.246 44.385 67.9093 40.0482Z" fill="white"/>
<path fill-rule="evenodd" clip-rule="evenodd" d="M57.3874 50.5702C59.5653 52.7481 59.5707 56.2817 57.3874 58.4651L53.2984 62.5541C52.2515 63.601 50.8315 64.1891 49.351 64.1891C47.8704 64.1891 46.4505 63.601 45.4035 62.5541C44.3566 61.5071 43.7685 60.0872 43.7685 58.6066C43.7685 57.1261 44.3566 55.7061 45.4035 54.6592L49.4925 50.5702C51.6704 48.3923 55.2068 48.3896 57.3874 50.5702Z" fill="white"/>
<path fill-rule="evenodd" clip-rule="evenodd" d="M68.8022 58.3698C68.6239 59.0815 68.307 59.751 67.8697 60.3401C67.4324 60.9292 66.8833 61.4264 66.2537 61.8031C65.6241 62.1798 64.9265 62.4287 64.2006 62.5357C63.4748 62.6426 62.735 62.6053 62.0235 62.4261L52.0842 59.9297C50.6481 59.5694 49.414 58.6534 48.6533 57.3832C47.8925 56.113 47.6676 54.5926 48.0279 53.1565C48.3882 51.7204 49.3042 50.4863 50.5744 49.7256C51.8446 48.9648 53.365 48.7399 54.8011 49.1002L64.7459 51.5966C65.457 51.7752 66.126 52.0923 66.7146 52.5295C67.3032 52.9667 67.7999 53.5156 68.1763 54.1449C68.5527 54.7741 68.8015 55.4713 68.9084 56.1967C69.0154 56.9221 68.9811 57.6587 68.8022 58.3698Z" fill="white"/>
</svg>
