<svg width="40" height="40" viewBox="0 0 40 40" fill="none" xmlns="http://www.w3.org/2000/svg">
<path d="M27.2667 23.3335C27.4 22.2335 27.5 21.1335 27.5 20.0002C27.5 18.8668 27.4 17.7668 27.2667 16.6668H32.9C33.1667 17.7335 33.3334 18.8502 33.3334 20.0002C33.3334 21.1502 33.1667 22.2668 32.9 23.3335M24.3167 32.6002C25.3167 30.7502 26.0834 28.7502 26.6167 26.6668H31.5334C29.9187 29.4473 27.3569 31.5535 24.3167 32.6002ZM23.9 23.3335H16.1C15.9334 22.2335 15.8334 21.1335 15.8334 20.0002C15.8334 18.8668 15.9334 17.7502 16.1 16.6668H23.9C24.05 17.7502 24.1667 18.8668 24.1667 20.0002C24.1667 21.1335 24.05 22.2335 23.9 23.3335ZM20 33.2668C18.6167 31.2668 17.5 29.0502 16.8167 26.6668H23.1834C22.5 29.0502 21.3834 31.2668 20 33.2668ZM13.3334 13.3335H8.46671C10.0644 10.5452 12.6245 8.43556 15.6667 7.40016C14.6667 9.25016 13.9167 11.2502 13.3334 13.3335ZM8.46671 26.6668H13.3334C13.9167 28.7502 14.6667 30.7502 15.6667 32.6002C12.6305 31.554 10.0739 29.4471 8.46671 26.6668ZM7.10004 23.3335C6.83337 22.2668 6.66671 21.1502 6.66671 20.0002C6.66671 18.8502 6.83337 17.7335 7.10004 16.6668H12.7334C12.6 17.7668 12.5 18.8668 12.5 20.0002C12.5 21.1335 12.6 22.2335 12.7334 23.3335M20 6.71683C21.3834 8.71683 22.5 10.9502 23.1834 13.3335H16.8167C17.5 10.9502 18.6167 8.71683 20 6.71683ZM31.5334 13.3335H26.6167C26.0943 11.2695 25.3219 9.277 24.3167 7.40016C27.3834 8.45016 29.9334 10.5668 31.5334 13.3335ZM20 3.3335C10.7834 3.3335 3.33337 10.8335 3.33337 20.0002C3.33337 24.4204 5.08932 28.6597 8.21493 31.7853C9.76257 33.3329 11.5999 34.5606 13.622 35.3982C15.6441 36.2357 17.8113 36.6668 20 36.6668C24.4203 36.6668 28.6595 34.9109 31.7852 31.7853C34.9108 28.6597 36.6667 24.4204 36.6667 20.0002C36.6667 17.8115 36.2356 15.6442 35.398 13.6221C34.5605 11.6 33.3328 9.76269 31.7852 8.21505C30.2375 6.66741 28.4002 5.43975 26.3781 4.60217C24.356 3.76459 22.1887 3.3335 20 3.3335Z" fill="white"/>
</svg>
