<svg width="126" height="126" viewBox="0 0 126 126" fill="none" xmlns="http://www.w3.org/2000/svg">
<path d="M63 107.75C47.375 107.75 33.5625 99.75 25.5 87.75C25.6875 75.25 50.5 68.375 63 68.375C75.5 68.375 100.313 75.25 100.5 87.75C96.3688 93.9033 90.7876 98.9461 84.248 102.434C77.7085 105.922 70.4115 107.747 63 107.75ZM63 19C67.9728 19 72.7419 20.9754 76.2583 24.4917C79.7746 28.0081 81.75 32.7772 81.75 37.75C81.75 42.7228 79.7746 47.4919 76.2583 51.0083C72.7419 54.5246 67.9728 56.5 63 56.5C58.0272 56.5 53.2581 54.5246 49.7417 51.0083C46.2254 47.4919 44.25 42.7228 44.25 37.75C44.25 32.7772 46.2254 28.0081 49.7417 24.4917C53.2581 20.9754 58.0272 19 63 19ZM63 0.25C54.7924 0.25 46.6651 1.86661 39.0823 5.00753C31.4994 8.14845 24.6095 12.7522 18.8058 18.5558C7.0848 30.2769 0.5 46.174 0.5 62.75C0.5 79.326 7.0848 95.2231 18.8058 106.944C24.6095 112.748 31.4994 117.352 39.0823 120.492C46.6651 123.633 54.7924 125.25 63 125.25C79.576 125.25 95.4731 118.665 107.194 106.944C118.915 95.2231 125.5 79.326 125.5 62.75C125.5 28.1875 97.375 0.25 63 0.25Z" fill="white"/>
</svg>
