<svg width="45" height="45" viewBox="0 0 45 45" fill="none" xmlns="http://www.w3.org/2000/svg">
<path d="M10.4186 11.9792C10.4186 8.80209 11.6807 5.75515 13.9272 3.50862C16.1737 1.26209 19.2207 0 22.3978 0C25.5748 0 28.6218 1.26209 30.8683 3.50862C33.1148 5.75515 34.3769 8.80209 34.3769 11.9792C34.3769 15.1562 33.1148 18.2032 30.8683 20.4497C28.6218 22.6962 25.5748 23.9583 22.3978 23.9583C19.2207 23.9583 16.1737 22.6962 13.9272 20.4497C11.6807 18.2032 10.4186 15.1562 10.4186 11.9792ZM21.9769 27.1062C22.0666 27.0927 22.1571 27.0851 22.2478 27.0833H22.5478C22.6394 27.0833 22.7297 27.091 22.8186 27.1062L38.0165 29.7792L38.0957 29.7958C40.8957 30.4417 43.904 32.2187 44.4894 35.6708L44.4978 35.7312L44.7353 37.5583V37.5625C45.2853 41.7479 41.9665 44.7917 38.0478 44.7917C37.9613 44.7901 37.875 44.7831 37.7894 44.7708H6.74777C2.82902 44.7708 -0.491816 41.725 0.0602674 37.5375L0.297767 35.7271L0.308184 35.6646C0.891517 32.275 3.92485 30.3979 6.7186 29.7917L6.77902 29.7792L21.9769 27.1062Z" fill="#1956EC"/>
</svg>
