<svg width="56" height="38" viewBox="0 0 56 38" fill="none" xmlns="http://www.w3.org/2000/svg">
<path d="M28 11.5C26.0109 11.5 24.1032 12.2902 22.6967 13.6967C21.2902 15.1032 20.5 17.0109 20.5 19C20.5 20.9891 21.2902 22.8968 22.6967 24.3033C24.1032 25.7098 26.0109 26.5 28 26.5C29.9891 26.5 31.8968 25.7098 33.3033 24.3033C34.7098 22.8968 35.5 20.9891 35.5 19C35.5 17.0109 34.7098 15.1032 33.3033 13.6967C31.8968 12.2902 29.9891 11.5 28 11.5ZM28 31.5C24.6848 31.5 21.5054 30.183 19.1612 27.8388C16.817 25.4946 15.5 22.3152 15.5 19C15.5 15.6848 16.817 12.5054 19.1612 10.1612C21.5054 7.81696 24.6848 6.5 28 6.5C31.3152 6.5 34.4946 7.81696 36.8388 10.1612C39.183 12.5054 40.5 15.6848 40.5 19C40.5 22.3152 39.183 25.4946 36.8388 27.8388C34.4946 30.183 31.3152 31.5 28 31.5ZM28 0.25C15.5 0.25 4.825 8.025 0.5 19C4.825 29.975 15.5 37.75 28 37.75C40.5 37.75 51.175 29.975 55.5 19C51.175 8.025 40.5 0.25 28 0.25Z" fill="black"/>
</svg>
