<svg width="184" height="184" viewBox="0 0 184 184" fill="none" xmlns="http://www.w3.org/2000/svg">
<path d="M0.333374 83.6667H25.3334V100.333H0.333374V83.6667ZM151.167 21.1667L133.667 38.6667L145.333 50.3333L162.833 32.8333L151.167 21.1667ZM83.6667 0.333344H100.333V25.3333H83.6667V0.333344ZM32.8334 21.1667L21.1667 32.8333L38.6667 50.3333L50.3334 38.6667L32.8334 21.1667ZM75.3334 175.333C75.3334 180.333 78.6667 183.667 83.6667 183.667H100.333C105.333 183.667 108.667 180.333 108.667 175.333V167H75.3334V175.333ZM92 42C64.5 42 42 64.5 42 92C42 110.333 52 127 67 135.333V150.333C67 155.333 70.3334 158.667 75.3334 158.667H108.667C113.667 158.667 117 155.333 117 150.333V135.333C132 127 142 110.333 142 92C142 64.5 119.5 42 92 42ZM100.333 124.5V133.667H83.6667V124.5C69.5 121.167 58.6667 107.833 58.6667 92C58.6667 73.6667 73.6667 58.6667 92 58.6667C110.333 58.6667 125.333 73.6667 125.333 92C125.333 107.833 114.5 120.333 100.333 124.5ZM158.667 83.6667H183.667V100.333H158.667V83.6667Z" fill="#1956EC"/>
</svg>
