<svg width="51" height="30" viewBox="0 0 51 30" fill="none" xmlns="http://www.w3.org/2000/svg">
<path d="M19.8242 0.505531L1.6142 12.6716C1.41591 12.8042 1.25561 12.9735 1.14539 13.1665C1.03517 13.3595 0.977905 13.5713 0.977905 13.7858C0.977905 14.0004 1.03517 14.2122 1.14539 14.4052C1.25561 14.5982 1.41591 14.7674 1.6142 14.9001L19.8242 27.069C20.09 27.2467 20.4131 27.3514 20.7505 27.3693C21.0879 27.3871 21.4237 27.3173 21.7134 27.1691C22.0031 27.0208 22.2329 26.8011 22.3723 26.5392C22.5118 26.2772 22.5543 25.9854 22.4942 25.7024L21.3109 20.1595C38.0309 16.7458 45.0042 24.3953 47.6909 29.3315C48.0842 30.0517 49.7375 29.9127 49.8242 29.1245C51.9742 8.70791 36.2175 5.75074 21.2575 7.67021L22.4942 1.86929C22.5544 1.58656 22.5122 1.29495 22.3732 1.03309C22.2341 0.771227 22.0048 0.551484 21.7156 0.402978C21.4265 0.254473 21.0911 0.184216 20.7539 0.201517C20.4167 0.218819 20.0936 0.322862 19.8275 0.499861" fill="white"/>
</svg>
