<svg width="36" height="35" viewBox="0 0 36 35" fill="none" xmlns="http://www.w3.org/2000/svg">
<path d="M24.7083 20.4166C24.4167 20.2708 22.5208 19.3958 22.2292 19.25C21.9375 19.1041 21.6458 19.1041 21.3542 19.3958C21.0625 19.6875 20.4792 20.5625 20.1875 20.8541C20.0417 21.1458 19.75 21.1458 19.4583 21C18.4375 20.5625 17.4167 19.9791 16.5417 19.25C15.8125 18.5208 15.0833 17.6458 14.5 16.7708C14.3542 16.4791 14.5 16.1875 14.6458 16.0416C14.7917 15.8958 14.9375 15.6041 15.2292 15.4583C15.375 15.3125 15.5208 15.0208 15.5208 14.875C15.6667 14.7291 15.6667 14.4375 15.5208 14.2916C15.375 14.1458 14.6458 12.3958 14.3542 11.6666C14.2083 10.6458 13.9167 10.6458 13.625 10.6458H12.8958C12.6042 10.6458 12.1667 10.9375 12.0208 11.0833C11.1458 11.9583 10.7083 12.9791 10.7083 14.1458C10.8542 15.4583 11.2917 16.7708 12.1667 17.9375C13.7708 20.2708 15.8125 22.1666 18.2917 23.3333C19.0208 23.625 19.6042 23.9166 20.3333 24.0625C21.0625 24.3541 21.7917 24.3541 22.6667 24.2083C23.6875 24.0625 24.5625 23.3333 25.1458 22.4583C25.4375 21.875 25.4375 21.2916 25.2917 20.7083L24.7083 20.4166ZM28.3542 7.14581C22.6667 1.45831 13.4792 1.45831 7.79167 7.14581C3.125 11.8125 2.25 18.9583 5.45833 24.6458L3.41667 32.0833L11.1458 30.0416C13.3333 31.2083 15.6667 31.7916 18 31.7916C26.0208 31.7916 32.4375 25.375 32.4375 17.3541C32.5833 13.5625 30.9792 9.91665 28.3542 7.14581ZM24.4167 27.5625C22.5208 28.7291 20.3333 29.4583 18 29.4583C15.8125 29.4583 13.7708 28.875 11.875 27.8541L11.4375 27.5625L6.91667 28.7291L8.08333 24.3541L7.79167 23.9166C4.29167 18.0833 6.04167 10.7916 11.7292 7.14581C17.4167 3.49998 24.7083 5.39581 28.2083 10.9375C31.7083 16.625 30.1042 24.0625 24.4167 27.5625Z" fill="white"/>
</svg>
