<svg width="50" height="50" viewBox="0 0 50 50" fill="none" xmlns="http://www.w3.org/2000/svg">
<path fill-rule="evenodd" clip-rule="evenodd" d="M25 2.604C37.3688 2.604 47.3959 12.6311 47.3959 24.9998C47.3959 37.3686 37.3688 47.3957 25 47.3957C21.125 47.3957 17.4792 46.4103 14.2979 44.6769L4.42295 46.3332C4.17955 46.3738 3.93 46.3562 3.69471 46.2818C3.45943 46.2074 3.24512 46.0783 3.06931 45.9052C2.89351 45.732 2.76122 45.5197 2.68327 45.2855C2.60533 45.0514 2.58394 44.8022 2.62086 44.5582L4.28753 33.5373C3.17102 30.8297 2.59901 27.9286 2.6042 24.9998C2.6042 12.6311 12.6313 2.604 25 2.604ZM16.5479 13.9582C15.0167 13.9582 13.7479 15.2498 13.9854 16.8457C14.4354 19.8373 15.7646 25.3498 19.7188 29.3332C23.8521 33.4978 29.7667 35.279 32.9688 35.9811C34.6271 36.3457 36.0417 35.0332 36.0417 33.4144V29.6144C36.0417 29.4882 36.0036 29.3649 35.9322 29.2607C35.8608 29.1566 35.7595 29.0765 35.6417 29.0311L31.5584 27.4623C31.4482 27.4202 31.3282 27.41 31.2125 27.4332L27.0938 28.2373C24.4375 26.8623 22.8292 25.3207 21.8646 22.9978L22.6396 18.7998C22.6604 18.6881 22.6503 18.5729 22.6104 18.4665L21.0792 14.3644C21.0347 14.2455 20.9551 14.1429 20.8509 14.0703C20.7467 13.9977 20.6229 13.9586 20.4959 13.9582H16.5479Z" fill="white"/>
</svg>
