<svg width="61" height="43" viewBox="0 0 61 43" fill="none" xmlns="http://www.w3.org/2000/svg">
<path fill-rule="evenodd" clip-rule="evenodd" d="M30.0194 0C26.6936 0 22.8148 0.0761658 19.0337 0.179534L18.8801 0.184974C15.0321 0.291062 11.9268 0.375389 9.48056 0.769819C6.931 1.18057 4.81428 1.96671 3.12202 3.6614C1.42418 5.36153 0.684164 7.46425 0.335101 9.98045C2.08058e-08 12.4014 0 15.4698 0 19.2836V23.4292C0 27.2374 2.08058e-08 30.3058 0.335101 32.7296C0.681372 35.2457 1.42418 37.3485 3.12202 39.0486C4.81428 40.746 6.931 41.5294 9.48056 41.9402C11.9268 42.3346 15.0321 42.4189 18.8801 42.525L19.0337 42.5305C22.8176 42.6338 26.6936 42.71 30.0194 42.71C33.3453 42.71 37.2241 42.6338 41.0052 42.5305L41.1587 42.525C45.0068 42.4189 48.1121 42.3346 50.5583 41.9402C53.1079 41.5294 55.2246 40.7433 56.9169 39.0486C58.6147 37.3485 59.3575 35.2457 59.7038 32.7296C60.0389 30.3086 60.0389 27.2402 60.0389 23.4264V19.2808C60.0389 15.4698 60.0389 12.4014 59.7038 9.98045C59.3575 7.46425 58.6147 5.36153 56.9169 3.6614C55.2246 1.96399 53.1079 1.18057 50.5583 0.769819C48.1121 0.375389 45.0068 0.291062 41.156 0.184974L41.0052 0.179534C37.3443 0.0712933 33.682 0.0114432 30.0194 0ZM26.8695 28.5649C26.551 28.7421 26.1904 28.8348 25.8236 28.8335C25.4568 28.8323 25.0968 28.7373 24.7796 28.558C24.4624 28.3787 24.199 28.1214 24.0159 27.8119C23.8329 27.5023 23.7364 27.1513 23.7363 26.7941V15.9132C23.7364 15.556 23.8329 15.205 24.0159 14.8954C24.199 14.5858 24.4624 14.3285 24.7796 14.1492C25.0968 13.9699 25.4568 13.8749 25.8236 13.8737C26.1904 13.8725 26.551 13.9652 26.8695 14.1424L36.6433 19.5828C36.9636 19.7613 37.2298 20.0191 37.415 20.3301C37.6001 20.641 37.6977 20.9941 37.6977 21.3536C37.6977 21.7131 37.6001 22.0662 37.415 22.3772C37.2298 22.6882 36.9636 22.946 36.6433 23.1245L26.8695 28.5649Z" fill="white"/>
</svg>
