<svg width="36" height="35" viewBox="0 0 36 35" fill="none" xmlns="http://www.w3.org/2000/svg">
<path d="M33.3708 9.36248C33.1887 8.68039 32.8309 8.05795 32.3332 7.55721C31.8356 7.05646 31.2153 6.69488 30.5344 6.50852C28.0333 5.83331 18 5.83331 18 5.83331C18 5.83331 7.96667 5.83331 5.46563 6.50852C4.78467 6.69488 4.16444 7.05646 3.66677 7.55721C3.16909 8.05795 2.81134 8.68039 2.62917 9.36248C1.95833 11.8825 1.95833 17.1354 1.95833 17.1354C1.95833 17.1354 1.95833 22.3883 2.62917 24.9083C2.81111 25.5907 3.16877 26.2134 3.66646 26.7144C4.16415 27.2154 4.78449 27.5772 5.46563 27.7637C7.96813 28.4375 18 28.4375 18 28.4375C18 28.4375 28.0333 28.4375 30.5344 27.7637C31.2155 27.5772 31.8359 27.2154 32.3335 26.7144C32.8312 26.2134 33.1889 25.5907 33.3708 24.9083C34.0417 22.3912 34.0417 17.1354 34.0417 17.1354C34.0417 17.1354 34.0417 11.8825 33.3708 9.36248ZM14.7188 21.9056V12.3666L23.1042 17.1369L14.7188 21.9056Z" stroke="white" stroke-width="2.1875" stroke-miterlimit="10" stroke-linejoin="round"/>
</svg>
