<svg width="50" height="50" viewBox="0 0 50 50" fill="none" xmlns="http://www.w3.org/2000/svg">
<path d="M33.3333 4.16675H16.6667C15.5616 4.16675 14.5018 4.60573 13.7204 5.38714C12.939 6.16854 12.5 7.22835 12.5 8.33341V41.6667C12.5 42.7718 12.939 43.8316 13.7204 44.613C14.5018 45.3944 15.5616 45.8334 16.6667 45.8334H33.3333C34.4384 45.8334 35.4982 45.3944 36.2796 44.613C37.061 43.8316 37.5 42.7718 37.5 41.6667V8.33341C37.5 7.22835 37.061 6.16854 36.2796 5.38714C35.4982 4.60573 34.4384 4.16675 33.3333 4.16675ZM27.0833 43.7501H22.9167V41.6667H27.0833V43.7501ZM33.3333 39.5834H16.6667V10.4167H33.3333V39.5834Z" fill="#5614E2"/>
</svg>
