<svg xmlns="http://www.w3.org/2000/svg" xmlns:xlink="http://www.w3.org/1999/xlink" width="1080" zoomAndPan="magnify" viewBox="0 0 810 809.999993" height="1080" preserveAspectRatio="xMidYMid meet" version="1.0"><defs><clipPath id="7bdb2cb54e"><path d="M 124 0 L 690.289062 0 L 690.289062 810 L 124 810 Z M 124 0 " clip-rule="nonzero"/></clipPath></defs><g clip-path="url(#7bdb2cb54e)"><path fill="#522694" d="M 164.921875 811.335938 L 652.421875 811.335938 C 674.765625 811.335938 693.046875 793.054688 693.046875 770.710938 L 693.046875 80.085938 C 693.046875 35.398438 656.484375 -1.164062 611.796875 -1.164062 L 205.546875 -1.164062 C 160.859375 -1.164062 124.296875 35.398438 124.296875 80.085938 L 124.296875 770.710938 C 124.296875 793.054688 142.578125 811.335938 164.921875 811.335938 M 449.296875 161.335938 L 530.546875 161.335938 L 530.546875 242.585938 L 449.296875 242.585938 Z M 449.296875 323.835938 L 530.546875 323.835938 L 530.546875 405.085938 L 449.296875 405.085938 Z M 449.296875 486.335938 L 530.546875 486.335938 L 530.546875 567.585938 L 449.296875 567.585938 Z M 286.796875 161.335938 L 368.046875 161.335938 L 368.046875 242.585938 L 286.796875 242.585938 Z M 286.796875 323.835938 L 368.046875 323.835938 L 368.046875 405.085938 L 286.796875 405.085938 Z M 286.796875 486.335938 L 368.046875 486.335938 L 368.046875 567.585938 L 286.796875 567.585938 Z M 286.796875 486.335938 " fill-opacity="1" fill-rule="nonzero"/></g></svg>