<svg width="42" height="42" viewBox="0 0 42 42" fill="none" xmlns="http://www.w3.org/2000/svg">
<path d="M39.5833 0H8.33333C7.22826 0 6.16846 0.438987 5.38705 1.22039C4.60565 2.00179 4.16667 3.0616 4.16667 4.16667V10.4167H0V14.5833H4.16667V18.75H0V22.9167H4.16667V27.0833H0V31.25H4.16667V37.5C4.16667 38.6051 4.60565 39.6649 5.38705 40.4463C6.16846 41.2277 7.22826 41.6667 8.33333 41.6667H39.5833C40.1359 41.6667 40.6658 41.4472 41.0565 41.0565C41.4472 40.6658 41.6667 40.1359 41.6667 39.5833V2.08333C41.6667 1.5308 41.4472 1.00089 41.0565 0.610194C40.6658 0.219493 40.1359 0 39.5833 0ZM22.9167 6.24792C26.35 6.24792 29.1667 9.0625 29.1667 12.4979C29.1617 14.1542 28.5017 15.7412 27.3307 16.9126C26.1598 18.084 24.5729 18.7445 22.9167 18.75C19.4854 18.75 16.6667 15.9312 16.6667 12.4979C16.6667 9.0625 19.4854 6.24792 22.9167 6.24792ZM35.4167 33.3333H10.4167V31.7708C10.4167 27.1479 16.0521 22.3958 22.9167 22.3958C29.7812 22.3958 35.4167 27.1479 35.4167 31.7708V33.3333Z" fill="#1956EC"/>
</svg>
