<svg width="50" height="50" viewBox="0 0 50 50" fill="none" xmlns="http://www.w3.org/2000/svg">
<path d="M49.3164 43.2324L39.5801 33.4961C39.1406 33.0566 38.5449 32.8125 37.9199 32.8125H36.3281C39.0234 29.3652 40.625 25.0293 40.625 20.3125C40.625 9.0918 31.5332 0 20.3125 0C9.0918 0 0 9.0918 0 20.3125C0 31.5332 9.0918 40.625 20.3125 40.625C25.0293 40.625 29.3652 39.0234 32.8125 36.3281V37.9199C32.8125 38.5449 33.0566 39.1406 33.4961 39.5801L43.2324 49.3164C44.1504 50.2344 45.6348 50.2344 46.543 49.3164L49.3066 46.5527C50.2246 45.6348 50.2246 44.1504 49.3164 43.2324ZM20.3125 32.8125C13.4082 32.8125 7.8125 27.2266 7.8125 20.3125C7.8125 13.4082 13.3984 7.8125 20.3125 7.8125C27.2168 7.8125 32.8125 13.3984 32.8125 20.3125C32.8125 27.2168 27.2266 32.8125 20.3125 32.8125Z" fill="#1956EC"/>
</svg>
