<svg width="36" height="35" viewBox="0 0 36 35" fill="none" xmlns="http://www.w3.org/2000/svg">
<path d="M17.8352 28.5417L9.18932 33.75C8.80738 33.9931 8.40807 34.0972 7.99141 34.0625C7.57474 34.0278 7.21016 33.8889 6.89766 33.6458C6.58516 33.4028 6.3421 33.0993 6.16849 32.7354C5.99488 32.3715 5.96016 31.9632 6.06432 31.5104L8.35599 21.6667L0.699741 15.0521C0.352519 14.7396 0.135852 14.3833 0.0497412 13.9833C-0.0363699 13.5833 -0.0106755 13.1931 0.126824 12.8125C0.264324 12.4319 0.472658 12.1194 0.751824 11.875C1.03099 11.6306 1.41294 11.4743 1.89766 11.4063L12.0018 10.5208L15.9081 1.25C16.0817 0.833334 16.3511 0.520833 16.7164 0.3125C17.0817 0.104166 17.4546 0 17.8352 0C18.2157 0 18.5886 0.104166 18.9539 0.3125C19.3192 0.520833 19.5886 0.833334 19.7622 1.25L23.6685 10.5208L33.7727 11.4063C34.2588 11.4757 34.6407 11.6319 34.9185 11.875C35.1963 12.1181 35.4046 12.4306 35.5435 12.8125C35.6824 13.1944 35.7088 13.5854 35.6227 13.9854C35.5365 14.3854 35.3192 14.741 34.9706 15.0521L27.3143 21.6667L29.606 31.5104C29.7102 31.9618 29.6754 32.3701 29.5018 32.7354C29.3282 33.1007 29.0852 33.4042 28.7727 33.6458C28.4602 33.8875 28.0956 34.0264 27.6789 34.0625C27.2622 34.0986 26.8629 33.9944 26.481 33.75L17.8352 28.5417Z" fill="#1956EC"/>
</svg>
