<svg width="38" height="42" viewBox="0 0 38 42" fill="none" xmlns="http://www.w3.org/2000/svg">
<path d="M30 20.8333C31.3125 20.8333 32.5687 21.1042 33.75 21.5625V12.5L22.5 0H3.75C1.66875 0 0 1.85417 0 4.16667V33.3333C0 34.4384 0.395088 35.4982 1.09835 36.2796C1.80161 37.061 2.75544 37.5 3.75 37.5H19.4062C18.9937 36.1875 18.75 34.7917 18.75 33.3333C18.75 26.4375 23.7937 20.8333 30 20.8333ZM20.625 3.125L30.9375 14.5833H20.625V3.125ZM37.5 31.25V35.4167H31.875V41.6667H28.125V35.4167H22.5V31.25H28.125V25H31.875V31.25H37.5Z" fill="#1956EC"/>
</svg>
