<svg width="38" height="38" viewBox="0 0 38 38" fill="none" xmlns="http://www.w3.org/2000/svg">
<path d="M10.4167 29.1667C11.0069 29.1667 11.5021 28.9667 11.9021 28.5667C12.3021 28.1667 12.5014 27.6722 12.5 27.0833C12.4986 26.4944 12.2986 26 11.9 25.6C11.5014 25.2 11.0069 25 10.4167 25C9.82639 25 9.33194 25.2 8.93333 25.6C8.53472 26 8.33472 26.4944 8.33333 27.0833C8.33194 27.6722 8.53194 28.1674 8.93333 28.5687C9.33472 28.9701 9.82917 29.1694 10.4167 29.1667ZM10.4167 20.8333C11.0069 20.8333 11.5021 20.6333 11.9021 20.2333C12.3021 19.8333 12.5014 19.3389 12.5 18.75C12.4986 18.1611 12.2986 17.6667 11.9 17.2667C11.5014 16.8667 11.0069 16.6667 10.4167 16.6667C9.82639 16.6667 9.33194 16.8667 8.93333 17.2667C8.53472 17.6667 8.33472 18.1611 8.33333 18.75C8.33194 19.3389 8.53194 19.834 8.93333 20.2354C9.33472 20.6368 9.82917 20.8361 10.4167 20.8333ZM10.4167 12.5C11.0069 12.5 11.5021 12.3 11.9021 11.9C12.3021 11.5 12.5014 11.0056 12.5 10.4167C12.4986 9.82778 12.2986 9.33333 11.9 8.93333C11.5014 8.53333 11.0069 8.33333 10.4167 8.33333C9.82639 8.33333 9.33194 8.53333 8.93333 8.93333C8.53472 9.33333 8.33472 9.82778 8.33333 10.4167C8.33194 11.0056 8.53194 11.5007 8.93333 11.9021C9.33472 12.3035 9.82917 12.5028 10.4167 12.5ZM18.75 29.1667H27.0833C27.6736 29.1667 28.1687 28.9667 28.5687 28.5667C28.9687 28.1667 29.1681 27.6722 29.1667 27.0833C29.1653 26.4944 28.9653 26 28.5667 25.6C28.1681 25.2 27.6736 25 27.0833 25H18.75C18.1597 25 17.6653 25.2 17.2667 25.6C16.8681 26 16.6681 26.4944 16.6667 27.0833C16.6653 27.6722 16.8653 28.1674 17.2667 28.5687C17.6681 28.9701 18.1625 29.1694 18.75 29.1667ZM18.75 20.8333H27.0833C27.6736 20.8333 28.1687 20.6333 28.5687 20.2333C28.9687 19.8333 29.1681 19.3389 29.1667 18.75C29.1653 18.1611 28.9653 17.6667 28.5667 17.2667C28.1681 16.8667 27.6736 16.6667 27.0833 16.6667H18.75C18.1597 16.6667 17.6653 16.8667 17.2667 17.2667C16.8681 17.6667 16.6681 18.1611 16.6667 18.75C16.6653 19.3389 16.8653 19.834 17.2667 20.2354C17.6681 20.6368 18.1625 20.8361 18.75 20.8333ZM18.75 12.5H27.0833C27.6736 12.5 28.1687 12.3 28.5687 11.9C28.9687 11.5 29.1681 11.0056 29.1667 10.4167C29.1653 9.82778 28.9653 9.33333 28.5667 8.93333C28.1681 8.53333 27.6736 8.33333 27.0833 8.33333H18.75C18.1597 8.33333 17.6653 8.53333 17.2667 8.93333C16.8681 9.33333 16.6681 9.82778 16.6667 10.4167C16.6653 11.0056 16.8653 11.5007 17.2667 11.9021C17.6681 12.3035 18.1625 12.5028 18.75 12.5ZM4.16667 37.5C3.02083 37.5 2.04028 37.0924 1.225 36.2771C0.409722 35.4618 0.00138889 34.4806 0 33.3333V4.16667C0 3.02083 0.408333 2.04028 1.225 1.225C2.04167 0.409722 3.02222 0.00138889 4.16667 0H33.3333C34.4792 0 35.4604 0.408333 36.2771 1.225C37.0937 2.04167 37.5014 3.02222 37.5 4.16667V33.3333C37.5 34.4792 37.0924 35.4604 36.2771 36.2771C35.4618 37.0937 34.4806 37.5014 33.3333 37.5H4.16667Z" fill="#1956EC"/>
</svg>
