<svg width="44" height="44" viewBox="0 0 44 44" fill="none" xmlns="http://www.w3.org/2000/svg">
<path d="M21.875 0C9.79395 0 0 9.79395 0 21.875C0 33.9561 9.79395 43.75 21.875 43.75C33.9561 43.75 43.75 33.9561 43.75 21.875C43.75 9.79395 33.9561 0 21.875 0ZM15.625 21.875C15.625 20.6389 15.9916 19.4305 16.6783 18.4027C17.3651 17.3749 18.3412 16.5738 19.4832 16.1008C20.6253 15.6277 21.8819 15.5039 23.0943 15.7451C24.3067 15.9862 25.4203 16.5815 26.2944 17.4556C27.1685 18.3297 27.7638 19.4433 28.0049 20.6557C28.2461 21.8681 28.1223 23.1247 27.6492 24.2668C27.1762 25.4088 26.3751 26.3849 25.3473 27.0717C24.3195 27.7584 23.1111 28.125 21.875 28.125C20.2174 28.125 18.6277 27.4665 17.4556 26.2944C16.2835 25.1223 15.625 23.5326 15.625 21.875ZM38.793 15.792L30.3623 16.3086C29.598 15.149 28.6059 14.1569 27.4463 13.3926L27.958 4.96191C30.4491 5.86347 32.7114 7.30184 34.5847 9.1751C36.4579 11.0484 37.8963 13.3107 38.7979 15.8018L38.793 15.792ZM9.16895 9.16895C11.0381 7.29255 13.3 5.85404 15.792 4.95703L16.3086 13.3877C15.1467 14.1529 14.1529 15.1467 13.3877 16.3086L4.95703 15.7969C5.8534 13.3032 7.29194 11.0395 9.16895 9.16895ZM4.95703 27.958L13.3877 27.4463C14.1534 28.6064 15.1472 29.5985 16.3086 30.3623L15.7969 38.793C13.3063 37.8919 11.0443 36.4543 9.17106 34.5819C7.29783 32.7095 5.85919 30.4482 4.95703 27.958ZM34.5811 34.5811C32.7119 36.4574 30.45 37.896 27.958 38.793L27.4463 30.3623C28.6059 29.598 29.598 28.6059 30.3623 27.4463L38.793 27.958C37.896 30.45 36.4574 32.7119 34.5811 34.5811Z" fill="#1956EC"/>
</svg>
