<svg width="50" height="38" viewBox="0 0 50 38" fill="none" xmlns="http://www.w3.org/2000/svg">
<path fill-rule="evenodd" clip-rule="evenodd" d="M0 18.75C0 18.75 9.375 0 25 0C40.625 0 50 18.75 50 18.75C50 18.75 40.625 37.5 25 37.5C9.375 37.5 0 18.75 0 18.75ZM5.65625 19.1562L5.40625 18.75L5.6625 18.3438C6.68125 16.75 8.18125 14.6344 10.1 12.5437C14.0437 8.23438 19.125 4.6875 25 4.6875C30.8687 4.6875 35.9563 8.23438 39.9062 12.5437C41.6538 14.466 43.2228 16.5433 44.5938 18.75C43.2166 20.9541 41.6458 23.031 39.9 24.9562C35.9562 29.2656 30.875 32.8125 25 32.8125C19.1313 32.8125 14.0437 29.2656 10.0938 24.9562C8.45209 23.1528 6.96752 21.2124 5.65625 19.1562ZM34.375 18.75C34.3744 20.7235 33.751 22.6465 32.5937 24.2451C31.4364 25.8436 29.8041 27.0361 27.9294 27.6528C26.0547 28.2695 24.0332 28.2788 22.1528 27.6794C20.2725 27.0801 18.6293 25.9026 17.4573 24.3148C16.2853 22.727 15.6442 20.8098 15.6254 18.8364C15.6066 16.863 16.2111 14.934 17.3527 13.3241C18.4943 11.7143 20.1148 10.5058 21.9834 9.8708C23.852 9.23578 25.8733 9.20663 27.7594 9.7875C27.0687 10.1 26.4642 10.5754 25.9976 11.1729C25.531 11.7703 25.2162 12.4721 25.0803 13.2179C24.9444 13.9637 24.9915 14.7313 25.2174 15.4549C25.4433 16.1786 25.8413 16.8366 26.3773 17.3727C26.9134 17.9087 27.5714 18.3067 28.2951 18.5326C29.0187 18.7585 29.7863 18.8056 30.5321 18.6697C31.2779 18.5338 31.9797 18.219 32.5771 17.7524C33.1746 17.2858 33.65 16.6813 33.9625 15.9906C34.2369 16.8847 34.3759 17.8148 34.375 18.75Z" fill="#1956EC"/>
</svg>
